<svg width="43" height="44" viewBox="0 0 43 44" fill="none" xmlns="http://www.w3.org/2000/svg">
<path d="M15.7641 4.9535H22.3688V43.3117H15.7641V4.9535Z" fill="#2F4253"/>
<path d="M24.5 7.83755C24.5 7.41079 24.8459 7.06482 25.2727 7.06482H39.7963C40.0592 7.06482 40.3041 7.19852 40.4463 7.41969L42.7314 10.9742C42.895 11.2288 42.895 11.5554 42.7314 11.81L40.4463 15.3645C40.3041 15.5857 40.0592 15.7194 39.7963 15.7194H25.2727C24.8459 15.7194 24.5 15.3734 24.5 14.9466V7.83755Z" fill="#2F4253"/>
<path d="M24.5 18.777C24.5 18.3502 24.8459 18.0043 25.2727 18.0043H33.728C33.991 18.0043 34.2359 18.138 34.378 18.3591L36.1201 21.069C36.2837 21.3235 36.2837 21.6502 36.1201 21.9047L34.378 24.6146C34.2359 24.8357 33.991 24.9694 33.728 24.9694H25.2727C24.8459 24.9694 24.5 24.6235 24.5 24.1967V18.777Z" fill="#2F4253"/>
<path d="M13.6331 7.83755C13.6331 7.41079 13.2871 7.06482 12.8604 7.06482H3.33678C3.07385 7.06482 2.82896 7.19852 2.68678 7.41969L0.401717 10.9742C0.238083 11.2288 0.238083 11.5554 0.401718 11.81L2.68678 15.3645C2.82896 15.5857 3.07385 15.7194 3.33678 15.7194H12.8604C13.2871 15.7194 13.6331 15.3734 13.6331 14.9466V7.83755Z" fill="#2F4253"/>
<path d="M15.7641 3.26982C15.7641 1.72661 17.0151 0.475586 18.5583 0.475586H19.5746C21.1178 0.475586 22.3688 1.72661 22.3688 3.26982H15.7641Z" fill="#2F4253"/>
</svg>
