<svg width="80" height="55" viewBox="0 0 80 55" fill="none" xmlns="http://www.w3.org/2000/svg">
<path d="M20.6491 42.3182C21.0571 42.5321 21.4614 42.6408 21.8506 42.6404C22.4155 42.6404 22.9189 42.4124 23.2683 41.998C23.5489 41.6646 23.8501 41.0665 23.6853 40.1127L23.2248 37.435L25.1772 35.5382C25.8561 34.8798 26.1077 34.0796 25.8694 33.343C25.6304 32.6062 24.9562 32.1058 24.019 31.9704L21.3166 31.579L20.1084 29.1403C19.6896 28.2942 19.0058 27.809 18.2315 27.809C17.4566 27.809 16.7723 28.2945 16.3547 29.1403L15.1471 31.5793L12.4452 31.9704C11.5074 32.1058 10.8327 32.6065 10.5937 33.3437C10.3547 34.0805 10.607 34.8804 11.2853 35.5379L13.2382 37.4353L12.7784 40.1109C12.613 41.0653 12.913 41.6637 13.1941 41.9978C13.7832 42.6984 14.8127 42.8426 15.8127 42.3182L18.2315 41.0514L20.6491 42.3182ZM15.3444 39.7733L15.8948 36.5699L13.5647 34.3059L16.7861 33.8394L18.2315 30.92L19.6775 33.8397L22.8984 34.3059L20.5683 36.5702L21.1193 39.7738L18.2315 38.2609L15.3444 39.7733Z" fill="white"/>
<path d="M11.6498 25.3986L11.2612 23.0293L12.8984 21.3601C13.5195 20.7261 13.7409 19.9599 13.5068 19.2581C13.2744 18.5638 12.6498 18.0909 11.7934 17.9615L9.57805 17.6241L8.57688 15.5013C8.02829 14.339 7.15138 14.2135 6.79957 14.2135C6.44713 14.2135 5.5696 14.339 5.02289 15.5013L4.02107 17.6241L1.80562 17.9612C0.948057 18.0912 0.32285 18.5644 0.0911079 19.2593C-0.143044 19.9615 0.0790666 20.7273 0.700619 21.3603L2.33733 23.0293L1.94869 25.3975C1.79778 26.3117 2.08811 26.8829 2.35847 27.201C2.92392 27.8681 3.90341 28.0024 4.83093 27.4931L6.79895 26.4104L8.76751 27.4931C9.14893 27.7028 9.53034 27.809 9.9015 27.809C10.4308 27.809 10.9057 27.5936 11.2382 27.2022C11.508 26.8847 11.7989 26.3142 11.6498 25.3986ZM8.61907 22.1929L9.05116 24.8281L6.79895 23.5891L4.5479 24.8256L4.97943 22.1929L3.08985 20.2662L5.69518 19.8697L6.79957 17.5282L7.90395 19.8697L10.5074 20.2677L8.61907 22.1929Z" fill="white"/>
<path d="M66.6589 31.9704L63.9564 31.5793L62.7495 29.1409C62.3312 28.2945 61.6469 27.809 60.872 27.809C60.0977 27.809 59.4139 28.2942 58.9951 29.14L57.7869 31.579L55.0845 31.9704C54.1473 32.1058 53.4731 32.6062 53.2341 33.343C52.9958 34.0796 53.2474 34.8798 53.9258 35.5379L55.8787 37.435L55.4182 40.1124C55.2535 41.0665 55.5546 41.6646 55.8352 41.9983C56.4254 42.6972 57.4538 42.8426 58.455 42.3182L60.872 41.0514L63.2908 42.3182C63.6987 42.5321 64.1031 42.6404 64.4923 42.6404C65.0572 42.6404 65.5605 42.4124 65.9094 41.9978C66.1905 41.664 66.4905 41.0657 66.3251 40.1127L65.8653 37.4353L67.8176 35.5385C68.4965 34.8804 68.7488 34.0805 68.5098 33.3437C68.2708 32.6065 67.5961 32.1058 66.6589 31.9704ZM63.2087 36.5699L63.7591 39.7733L60.872 38.2609L57.9842 39.7738L58.5353 36.5702L56.2051 34.3059L59.426 33.8397L60.872 30.92L62.3174 33.8394L65.5388 34.3059L63.2087 36.5699Z" fill="white"/>
<path d="M79.0124 19.2593C78.7807 18.5644 78.1554 18.0912 77.2985 17.9615L75.0824 17.6241L74.0813 15.5028C73.5339 14.339 72.6564 14.2135 72.3039 14.2135C71.9521 14.2135 71.0752 14.339 70.5266 15.5017L69.5255 17.6241L67.3106 17.9612C66.4537 18.0909 65.8291 18.5638 65.5967 19.2581C65.3626 19.9599 65.5841 20.7261 66.2057 21.3603L67.8423 23.0293L67.4537 25.4002C67.3046 26.3142 67.5955 26.8847 67.8653 27.2025C68.4319 27.8675 69.4102 28.0012 70.336 27.4931L72.3046 26.4104L74.2731 27.4934C74.6545 27.7028 75.036 27.809 75.4071 27.809C75.9376 27.809 76.4126 27.5933 76.745 27.201C77.0154 26.8829 77.3057 26.3117 77.1548 25.3986L76.7662 23.0293L78.4023 21.3609C79.0245 20.7273 79.2465 19.9615 79.0124 19.2593ZM74.1241 22.1929L74.5562 24.8277L72.3046 23.5891L70.0523 24.8256L70.4844 22.1929L68.5949 20.2662L71.1996 19.8697L72.3039 17.5282L73.4083 19.8697L76.0124 20.2677L74.1241 22.1929Z" fill="white"/>
<path d="M39.5518 21.0112C45.3549 21.0112 50.0574 16.3076 50.0574 10.5044C50.0574 4.70213 45.3549 0 39.5518 0C33.751 0 29.0462 4.70213 29.0462 10.5044C29.0462 16.3076 33.751 21.0112 39.5518 21.0112ZM39.5518 2.47191C43.9814 2.47191 47.5855 6.0754 47.5855 10.5044C47.5855 14.935 43.9814 18.5393 39.5518 18.5393C35.1221 18.5393 31.5181 14.935 31.5181 10.5044C31.5181 6.0754 35.1221 2.47191 39.5518 2.47191Z" fill="white"/>
<path d="M46.4575 47.1392L49.7056 43.8251C50.5498 42.9651 50.863 41.9594 50.5655 41.0657C50.2716 40.1852 49.4406 39.5795 48.2861 39.4039L43.8402 38.7286L41.8426 34.4909C41.1021 32.9224 39.9941 32.7528 39.5524 32.7528C39.1094 32.7528 38.0008 32.9224 37.2633 34.4915L35.2645 38.7283L30.818 39.4039C29.6629 39.5795 28.8313 40.1857 28.538 41.0668C28.2399 41.9609 28.5537 42.9663 29.3968 43.8242L32.6466 47.1395L31.8783 51.8311C31.6701 53.0933 32.0419 53.8479 32.3901 54.2586C33.1022 55.0981 34.3472 55.2399 35.588 54.5577L39.5524 52.3778L43.5155 54.5577C44.049 54.8512 44.5716 55.0003 45.0677 55C45.7231 55 46.3072 54.7369 46.7128 54.2586C47.0616 53.8479 47.434 53.0935 47.2264 51.8329L46.4575 47.1392ZM44.7871 52.2333C44.8004 52.3141 44.8076 52.3848 44.8112 52.4451C44.7792 52.4303 44.7448 52.4125 44.7068 52.3917L39.5524 49.5571L34.3973 52.3914C34.3593 52.4122 34.3249 52.4297 34.2935 52.4448C34.2965 52.3842 34.3044 52.3135 34.3177 52.2324L35.2887 46.3031L31.1608 42.0928C31.0853 42.0152 31.0292 41.947 30.9894 41.8906C31.0431 41.8752 31.1095 41.8601 31.1898 41.8481L36.9386 40.9745L39.4992 35.5446C39.518 35.5053 39.5354 35.4701 39.553 35.4384C39.5705 35.4704 39.5886 35.506 39.6073 35.5458L42.1661 40.9742L47.9144 41.8481C47.9946 41.8601 48.061 41.8752 48.1142 41.8906C48.0737 41.9473 48.0176 42.0159 47.9409 42.094L43.8154 46.3033L44.7871 52.2333Z" fill="white"/>
<path d="M22.7203 28.844C23.3842 27.6485 24.1578 26.5897 25.0504 25.673C27.0063 23.6639 29.5935 22.2882 32.7739 21.5511C31.8977 21.0113 31.0823 20.3818 30.36 19.6558C26.1125 21.0366 23.2031 23.5094 21.2254 26.5543C21.6588 26.9626 22.0347 27.459 22.3238 28.0435L22.7203 28.844Z" fill="white"/>
<path d="M20.5321 45.6305C20.1283 45.6305 19.8066 45.3113 19.8 45.0354C19.7964 44.9015 19.7976 44.7741 19.7946 44.6414C19.6968 44.597 19.599 44.5587 19.5019 44.508L18.2309 43.842L17.313 44.323C17.3172 44.5837 17.322 44.8438 17.3287 45.1012C17.3722 46.7605 18.8362 48.1024 20.5321 48.1024H29.9846L30.0051 47.9757L27.7058 45.6305H20.5321Z" fill="white"/>
<path d="M46.1908 21.6356C49.2921 22.4083 51.8395 23.7964 53.7978 25.7937C54.7332 26.7481 55.5491 27.8576 56.2486 29.1147L56.7797 28.0429C57.0265 27.5441 57.3397 27.1126 57.694 26.7405C55.6964 23.6974 52.7948 21.2062 48.6174 19.7741C47.8878 20.488 47.0713 21.1084 46.1908 21.6356Z" fill="white"/>
<path d="M59.6022 44.5077C59.5093 44.5566 59.4121 44.5864 59.318 44.629C59.3162 44.7714 59.3186 44.909 59.3155 45.0526C59.3102 45.3143 58.9879 45.6305 58.5956 45.6305H51.3971L49.099 47.9753L49.1195 48.1024H58.5956C60.289 48.1024 61.7543 46.7605 61.7869 45.1012C61.7917 44.8447 61.7947 44.5858 61.7965 44.3263L60.8726 43.842L59.6022 44.5077Z" fill="white"/>
</svg>
