<svg width="111" height="36" viewBox="0 0 111 36" fill="none" xmlns="http://www.w3.org/2000/svg">
<path d="M33.8025 11.0589C33.8025 10.883 33.9441 10.7423 34.1212 10.7423H34.9357C36.0513 10.7423 36.8481 10.9182 37.3085 11.2876C37.7865 11.6571 38.1584 12.2024 38.4063 12.8885C38.6719 13.6098 38.8135 14.6653 38.8135 16.0375C38.8135 17.4448 38.6896 18.5531 38.4594 19.3272C38.2469 20.0836 37.8751 20.6818 37.3616 21.104C36.8658 21.5086 35.9981 21.7197 34.7764 21.7197H34.1212C33.9441 21.7197 33.8025 21.5789 33.8025 21.403V11.0414V11.0589ZM38.849 9.52845C38.0167 8.93032 36.7418 8.63126 35.0597 8.63126H31.5537C31.3766 8.63126 31.235 8.77199 31.235 8.94791V23.6548C31.235 23.8307 31.3766 23.9715 31.5537 23.9715H35.0597C36.7418 23.9715 38.0167 23.6548 38.8313 23.0039C39.6281 22.3706 40.2655 21.4734 40.6905 20.3123C41.1154 19.1688 41.3279 17.8319 41.3279 16.3365C41.3279 14.7709 41.1154 13.3811 40.7259 12.22C40.3186 11.0238 39.6812 10.1266 38.849 9.52845Z" fill="#466068"/>
<path d="M47.667 13.4688L49.1898 18.2362C49.2607 18.4297 49.1013 18.6408 48.8888 18.6408H46.2859C46.0734 18.6408 45.9141 18.4297 45.9849 18.2362L47.4723 13.4688V13.4512L47.5608 13.0994L47.667 13.4512V13.4688ZM46.3744 8.8597L41.8238 23.5666C41.7529 23.7601 41.9123 23.9712 42.1248 23.9712H43.984C44.1257 23.9712 44.2496 23.8833 44.285 23.7425L45.1527 20.9454C45.1881 20.8222 45.312 20.7167 45.4537 20.7167H49.7387C49.8804 20.7167 50.0043 20.8047 50.0398 20.9278L50.9074 23.7249C50.9428 23.8481 51.0668 23.936 51.2084 23.936H53.2447C53.4572 23.936 53.6166 23.7249 53.5457 23.5314L48.9596 8.82452C48.9242 8.70138 48.8003 8.59583 48.6586 8.59583H46.7109C46.5692 8.59583 46.4453 8.68379 46.4098 8.82452L46.3744 8.8597Z" fill="#466068"/>
<path d="M59.5837 19.1161V19.1337L59.4952 19.4679L59.389 19.1161L56.1663 8.84236C56.1309 8.71922 56.0069 8.63126 55.8653 8.63126H53.829C53.6165 8.63126 53.4572 8.84236 53.528 9.03587L58.1141 23.7428C58.1495 23.8659 58.2734 23.9715 58.4151 23.9715H60.3628C60.5045 23.9715 60.6284 23.8835 60.6639 23.7428L65.2145 9.03587C65.2854 8.84236 65.126 8.63126 64.9135 8.63126H63.0543C62.9126 8.63126 62.7887 8.71922 62.7533 8.85995L59.5483 19.1337L59.5837 19.1161Z" fill="#466068"/>
<path d="M66.8788 10.7423H69.4995C69.6765 10.7423 69.8182 10.883 69.8182 11.0589V21.5614C69.8182 21.7373 69.6765 21.878 69.4995 21.878H66.8788C66.7018 21.878 66.5601 22.0187 66.5601 22.1947V23.6724C66.5601 23.8483 66.7018 23.989 66.8788 23.989H75.3073C75.4844 23.989 75.6261 23.8483 75.6261 23.6724V22.1947C75.6261 22.0187 75.4844 21.878 75.3073 21.878H72.6867C72.5096 21.878 72.368 21.7373 72.368 21.5614V11.0589C72.368 10.883 72.5096 10.7423 72.6867 10.7423H75.3073C75.4844 10.7423 75.6261 10.6016 75.6261 10.4256V8.94791C75.6261 8.77199 75.4844 8.63126 75.3073 8.63126H66.8788C66.7018 8.63126 66.5601 8.77199 66.5601 8.94791V10.4256C66.5601 10.6016 66.7018 10.7423 66.8788 10.7423Z" fill="#466068"/>
<path d="M84.7984 17.4272L80.1769 8.78958C80.1238 8.68403 80.0176 8.63126 79.8936 8.63126H78.1583C77.9813 8.63126 77.8396 8.77199 77.8396 8.94791V23.6548C77.8396 23.8307 77.9813 23.9715 78.1583 23.9715H79.929C80.1061 23.9715 80.2477 23.8307 80.2477 23.6548V13.9968V13.9792L80.3186 14.1551L85.4182 23.7955C85.4713 23.9011 85.5775 23.9715 85.7015 23.9715H87.4722C87.6492 23.9715 87.7909 23.8307 87.7909 23.6548V8.94791C87.7909 8.77199 87.6492 8.63126 87.4722 8.63126H85.7015C85.5244 8.63126 85.3827 8.77199 85.3827 8.94791V17.2865C85.3827 17.6208 84.9401 17.7263 84.7984 17.4272Z" fill="#466068"/>
<path d="M96.0773 8.19107C94.8555 8.19107 93.7046 8.52532 92.6953 9.17622C91.6683 9.82712 90.8715 10.8123 90.3226 12.0789C89.7737 13.3279 89.4904 14.7529 89.4904 16.301C89.4904 17.8667 89.7737 19.3092 90.3226 20.5582C90.8892 21.8249 91.686 22.7924 92.713 23.4433C93.74 24.0942 94.8733 24.4109 96.0773 24.4109C96.9804 24.4109 98.0251 24.1998 99.1583 23.7776C99.2823 23.7248 99.3708 23.6192 99.3708 23.4785V21.7369C99.3708 21.4906 99.1052 21.3499 98.8927 21.473C97.9188 22.036 96.945 22.3174 96.0065 22.3174C95.3159 22.3174 94.6962 22.0887 94.1296 21.6313C93.5629 21.1739 93.0671 20.4527 92.6953 19.4851C92.3058 18.5176 92.111 17.4444 92.111 16.301C92.111 15.1751 92.3058 14.1196 92.6776 13.152C93.0494 12.202 93.5275 11.4808 94.1119 11.0058C94.6962 10.5308 95.3159 10.3021 96.0065 10.3021C96.9627 10.3021 97.9365 10.5836 98.8927 11.1465C99.1052 11.2697 99.3708 11.1113 99.3708 10.8826V9.14104C99.3708 9.01789 99.2823 8.89475 99.1583 8.84197C98.0251 8.41977 96.9804 8.20866 96.0773 8.20866V8.19107Z" fill="#466068"/>
<path d="M110.774 10.4256V8.94791C110.774 8.77199 110.633 8.63126 110.456 8.63126H102.027C101.85 8.63126 101.708 8.77199 101.708 8.94791V10.4256C101.708 10.6016 101.85 10.7423 102.027 10.7423H104.648C104.825 10.7423 104.967 10.883 104.967 11.0589V21.5614C104.967 21.7373 104.825 21.878 104.648 21.878H102.027C101.85 21.878 101.708 22.0187 101.708 22.1947V23.6724C101.708 23.8483 101.85 23.989 102.027 23.989H110.456C110.633 23.989 110.774 23.8483 110.774 23.6724V22.1947C110.774 22.0187 110.633 21.878 110.456 21.878H107.835C107.658 21.878 107.516 21.7373 107.516 21.5614V11.0589C107.516 10.883 107.658 10.7423 107.835 10.7423H110.456C110.633 10.7423 110.774 10.6016 110.774 10.4256Z" fill="#466068"/>
<path d="M58.9992 30.0227H60.3626C60.4512 30.0227 60.522 30.093 60.522 30.181V34.8429C60.522 34.9308 60.5928 35.0012 60.6814 35.0012H61.248C61.3365 35.0012 61.4073 34.9308 61.4073 34.8429V30.181C61.4073 30.093 61.4782 30.0227 61.5667 30.0227H62.9301C63.0187 30.0227 63.0895 29.9523 63.0895 29.8643V29.407C63.0895 29.319 63.0187 29.2486 62.9301 29.2486H58.9815C58.893 29.2486 58.8221 29.319 58.8221 29.407V29.8643C58.8221 29.9523 58.893 30.0227 58.9815 30.0227H58.9992Z" fill="#17AFE6"/>
<path d="M67.6582 34.4381C67.3395 34.4381 67.0739 34.2622 66.8437 33.8752C66.6135 33.4882 66.5072 32.89 66.5072 32.0984C66.5072 31.3068 66.6312 30.7086 66.8437 30.3392C67.0739 29.9698 67.3395 29.7762 67.6582 29.7762C67.9769 29.7762 68.2425 29.9522 68.4727 30.3392C68.7029 30.7262 68.8091 31.3243 68.8091 32.0984C68.8091 32.89 68.6852 33.4882 68.4727 33.8752C68.2425 34.2446 67.9769 34.4381 67.6582 34.4381ZM67.6582 29.0726C66.9853 29.0726 66.4718 29.354 66.1177 29.917C65.7813 30.4623 65.6042 31.2012 65.6042 32.116C65.6042 33.0308 65.7813 33.7872 66.1177 34.3326C66.4718 34.8955 66.9853 35.177 67.6582 35.177C68.3311 35.177 68.8446 34.8955 69.1987 34.3326C69.5351 33.7872 69.7122 33.0484 69.7122 32.116C69.7122 31.2012 69.5351 30.4623 69.1987 29.917C68.8446 29.354 68.3311 29.0726 67.6582 29.0726Z" fill="#17AFE6"/>
<path d="M75.3781 32.7139C75.3781 33.2944 75.3427 33.6815 75.2541 33.8926C75.1833 34.0861 75.0771 34.2268 74.9177 34.3148C74.7584 34.4027 74.5813 34.4555 74.3688 34.4555C74.174 34.4555 73.997 34.4203 73.8553 34.3324C73.6959 34.2444 73.5897 34.1213 73.5189 33.9629C73.448 33.8046 73.4126 33.4704 73.4126 33.013V29.4242C73.4126 29.3362 73.3418 29.2659 73.2533 29.2659H72.6866C72.5981 29.2659 72.5273 29.3362 72.5273 29.4242V32.925C72.5273 33.6287 72.5981 34.1037 72.7398 34.3675C72.8814 34.649 73.1116 34.8425 73.3949 34.9833C73.6782 35.124 73.997 35.1944 74.3688 35.1944C74.7584 35.1944 75.0948 35.124 75.3604 34.9657C75.626 34.8073 75.8385 34.5786 75.9978 34.262C76.1572 33.9629 76.2457 33.5231 76.2457 32.9954V29.4242C76.2457 29.3362 76.1749 29.2659 76.0864 29.2659H75.5729C75.4843 29.2659 75.4135 29.3362 75.4135 29.4242V32.7315L75.3781 32.7139Z" fill="#17AFE6"/>
<path d="M80.1765 30.128C80.1765 30.0401 80.2474 29.9697 80.3359 29.9697H80.6369C81.115 29.9697 81.4514 30.0401 81.6285 30.1808C81.8056 30.3216 81.8941 30.4975 81.8941 30.7438C81.8941 30.8845 81.8587 31.0076 81.8056 31.1484C81.7525 31.2891 81.6639 31.4123 81.5577 31.5354C81.4691 31.6409 81.3098 31.7641 81.115 31.8696C81.0973 31.8872 81.0619 31.8872 81.0265 31.8872H80.3182C80.2297 31.8872 80.1588 31.8169 80.1588 31.7289V30.128H80.1765ZM81.7702 32.4678C81.717 32.3974 81.7525 32.2919 81.8233 32.2391C82.0181 32.1159 82.1597 31.9928 82.2837 31.8521C82.443 31.6761 82.567 31.465 82.6555 31.2363C82.744 31.0076 82.7972 30.7789 82.7972 30.5502C82.7972 30.304 82.7263 30.0753 82.5847 29.8642C82.443 29.6531 82.2482 29.4947 82.0004 29.3716C81.7525 29.266 81.3806 29.2133 80.8848 29.2133H79.4683C79.3797 29.2133 79.3089 29.2836 79.3089 29.3716V34.8075C79.3089 34.8955 79.3797 34.9658 79.4683 34.9658H80.0349C80.1234 34.9658 80.1942 34.8955 80.1942 34.8075V32.7492C80.1942 32.6613 80.2651 32.5909 80.3536 32.5909H80.7077C80.7609 32.5909 80.814 32.6261 80.8494 32.6613L82.2482 34.8779C82.2837 34.9306 82.3368 34.9482 82.3899 34.9482H83.0628C83.1867 34.9482 83.2753 34.8075 83.2044 34.702L81.7879 32.4326L81.7702 32.4678Z" fill="#17AFE6"/>
<path d="M12.8905 1.92844C10.9605 1.92844 9.01271 2.40342 7.31285 3.3358C4.00166 5.14777 2.53198 8.26155 1.89453 10.5309C1.08002 13.3808 1.0446 16.6353 1.806 19.4676C3.84229 27.085 11.1375 32.732 12.5895 33.6292C13.2978 33.207 15.2987 31.7468 17.4235 29.5654C19.566 27.3664 22.3814 23.848 23.6032 19.6787C24.4531 16.7585 24.4531 13.3984 23.6209 10.443C22.9658 8.10322 21.4784 4.93667 18.0964 3.15988C16.5204 2.33306 14.6966 1.91085 12.8905 1.91085V1.92844ZM12.5718 35.0014L12.377 34.931C11.8104 34.7375 9.38456 32.9783 6.97642 30.4274C4.72764 28.0525 1.78829 24.2878 0.584224 19.7667C-0.230294 16.7233 -0.19488 13.2225 0.672758 10.1615C1.69976 6.55513 3.78917 3.81078 6.71081 2.19232C10.3584 0.186835 15.0685 0.116467 18.6984 2.03399C22.47 4.02189 24.1167 7.5051 24.8427 10.0911C25.728 13.2753 25.728 16.8816 24.825 20.013C22.3637 28.4747 13.8113 34.5967 12.7843 34.9134L12.5895 34.9838L12.5718 35.0014Z" fill="#466068"/>
<path d="M11.8459 22.6871C11.8105 22.6344 11.7574 22.5992 11.722 22.5464L11.7043 22.5288C11.6688 22.4936 11.6334 22.476 11.598 22.4409C11.5803 22.4233 11.5803 22.4233 11.5626 22.4057C11.5449 22.3881 11.5272 22.3705 11.4918 22.3529C11.4564 22.3353 11.4387 22.3177 11.4032 22.3001C11.3855 22.2825 11.3678 22.2825 11.3501 22.2649C11.3147 22.2473 11.2793 22.2298 11.2439 22.2122C11.2262 22.2122 11.2085 22.1946 11.2085 22.1946C11.1731 22.177 11.1376 22.177 11.1022 22.1594C11.0845 22.1594 11.0845 22.1594 11.0668 22.1418C11.0314 22.1242 10.9783 22.1242 10.9429 22.1066C10.9252 22.1066 10.9252 22.1066 10.9075 22.1066C10.8543 22.1066 10.8189 22.089 10.7658 22.089H10.7481C10.695 22.089 10.6418 22.089 10.5887 22.089H10.7481C10.1992 22.089 9.7565 21.6492 9.7565 21.1039C9.7565 20.5761 10.1815 20.1363 10.695 20.1187C10.695 20.1187 10.6241 20.1187 10.5887 20.1187C10.872 20.1187 11.1553 20.0484 11.3855 19.9076C11.421 19.89 11.4564 19.8548 11.5095 19.8372C11.5272 19.8372 11.5272 19.8197 11.5449 19.8197C11.5803 19.8021 11.6157 19.7669 11.6334 19.7493C11.6511 19.7317 11.6511 19.7317 11.6688 19.7141C11.6866 19.6965 11.7043 19.6789 11.722 19.6613C11.7397 19.6437 11.7751 19.6086 11.7928 19.591C11.8105 19.5734 11.8105 19.5558 11.8282 19.5558C11.8459 19.5382 11.8636 19.5206 11.8813 19.503C11.9522 19.415 12.023 19.3095 12.0761 19.1863C12.0761 19.1688 12.0938 19.1688 12.0938 19.1512C12.1115 19.116 12.1115 19.0984 12.1292 19.0632C12.1292 19.0456 12.1469 19.028 12.1469 19.0104C12.1469 18.9928 12.1646 18.9576 12.1646 18.9401C12.1646 18.9225 12.1824 18.8873 12.1824 18.8697C12.1824 18.8521 12.2001 18.8169 12.2001 18.7993C12.2001 18.7641 12.2178 18.7465 12.2178 18.7114C12.2178 18.6938 12.2178 18.6762 12.2178 18.6586C12.2178 18.6058 12.2178 18.553 12.2178 18.5003C12.2178 18.1308 12.0938 17.779 11.8813 17.5151C11.8636 17.4799 11.8282 17.4447 11.8105 17.4271L11.7928 17.4096C11.7574 17.3744 11.7397 17.3568 11.7043 17.3216C11.6511 17.2688 11.598 17.2336 11.5449 17.1985C11.5272 17.1809 11.5095 17.1633 11.4741 17.1457C11.4032 17.0929 11.3147 17.0577 11.2439 17.0225C11.1908 17.0049 11.1553 16.9873 11.1022 16.9698C11.0845 16.9698 11.0845 16.9698 11.0668 16.9522C11.0314 16.9346 10.9783 16.9346 10.9429 16.917H10.9252C10.872 16.8994 10.8189 16.8994 10.7835 16.8994H10.7658C10.7481 16.8994 10.7127 16.8994 10.695 16.8994C10.6773 16.8994 10.6418 16.8994 10.6241 16.8994H10.7835C10.2346 16.8994 9.79192 16.4596 9.79192 15.9142C9.79192 15.3865 10.2169 14.9467 10.7304 14.9291C10.7304 14.9291 10.6596 14.9291 10.6241 14.9291C10.6596 14.9291 10.6773 14.9291 10.695 14.9291C10.7127 14.9291 10.7481 14.9291 10.7658 14.9291H10.7835C10.8366 14.9291 10.8897 14.9115 10.9252 14.9115H10.9429C10.9783 14.8939 11.0314 14.8939 11.0668 14.8763C11.0845 14.8763 11.0845 14.8763 11.1022 14.8587C11.1553 14.8411 11.1908 14.8235 11.2439 14.8059C11.3324 14.7708 11.4032 14.7356 11.4741 14.6828C11.4918 14.6652 11.5272 14.6476 11.5449 14.63C11.598 14.5948 11.6334 14.5597 11.6688 14.5245C11.6866 14.5069 11.6866 14.5069 11.7043 14.4893C11.7397 14.4541 11.7574 14.4365 11.7928 14.4013L11.8105 14.3837C11.8459 14.3486 11.8636 14.331 11.8813 14.2958C12.0938 14.0143 12.2178 13.6801 12.2178 13.3106C12.2178 12.4134 11.4918 11.6922 10.5887 11.6922H7.17129C8.44619 10.0033 10.4648 8.93022 12.749 8.93022C13.2625 8.93022 13.776 8.983 14.2718 9.08855C13.4395 9.15892 12.8021 9.8626 12.8021 10.707C12.8021 11.0764 12.926 11.4283 13.1385 11.6922C13.4395 12.0792 13.8999 12.3255 14.4311 12.3255C14.3957 12.3255 14.3249 12.3255 14.3249 12.3255C14.8561 12.3607 15.2634 12.7829 15.2634 13.3106C15.2634 13.856 14.8207 14.2958 14.2718 14.2958H14.4311C14.378 14.2958 14.3249 14.2958 14.2718 14.2958H14.2541C14.2009 14.2958 14.1655 14.3134 14.1124 14.3134C14.0947 14.3134 14.0947 14.3134 14.077 14.3134C14.0416 14.331 13.9885 14.331 13.953 14.3486C13.9353 14.3486 13.9353 14.3486 13.9176 14.3661C13.8822 14.3837 13.8468 14.3837 13.8114 14.4013C13.7937 14.4013 13.776 14.4189 13.776 14.4189C13.7406 14.4365 13.7051 14.4541 13.6697 14.4717C13.652 14.4893 13.6343 14.4893 13.6166 14.5069C13.5812 14.5245 13.5635 14.5421 13.5281 14.5597C13.5104 14.5772 13.475 14.5948 13.4572 14.6124C13.4395 14.6124 13.4395 14.63 13.4218 14.63C13.3864 14.6652 13.351 14.6828 13.3156 14.718L13.2979 14.7356C13.2271 14.7884 13.1739 14.8587 13.1208 14.9291C12.9083 15.2106 12.7844 15.5448 12.7844 15.9142C12.7844 16.8114 13.5104 17.5327 14.4134 17.5327H15.9185C15.8831 17.5327 15.8123 17.5327 15.8123 17.5327C16.3435 17.5679 16.7507 17.9901 16.7507 18.5178C16.7507 19.0632 16.3081 19.503 15.7591 19.503H15.2102C14.3072 19.503 13.5812 20.2243 13.5812 21.1215C13.5812 21.4909 13.7051 21.8427 13.9176 22.1066C14.0593 22.2825 14.2186 22.4233 14.4134 22.5288C13.8822 22.6696 13.3156 22.7399 12.7313 22.7399C12.4302 22.7399 12.1115 22.7223 11.8282 22.6871H11.8459ZM5.79016 15.8263C5.79016 14.5421 6.14429 13.3458 6.76404 12.3079H10.6064C11.1553 12.3079 11.598 12.7477 11.598 13.293C11.598 13.8208 11.1731 14.2606 10.6596 14.2782C10.1815 14.3134 9.7565 14.5421 9.47319 14.9115C9.26071 15.193 9.13676 15.5272 9.13676 15.8966C9.13676 16.2661 9.26071 16.6179 9.47319 16.8818C9.7565 17.2512 10.1815 17.4799 10.6773 17.5151C10.6596 17.5151 10.6596 17.5151 10.6596 17.5151C10.6773 17.5151 10.7127 17.5151 10.7304 17.5151C10.7481 17.5151 10.7481 17.5151 10.7658 17.5151C10.7835 17.5151 10.8012 17.5151 10.8189 17.5327C10.8366 17.5327 10.8366 17.5327 10.8543 17.5327C10.872 17.5327 10.8897 17.5503 10.9075 17.5503C10.9252 17.5503 10.9252 17.5503 10.9429 17.5679C10.9606 17.5679 10.9783 17.5855 10.996 17.5855C11.0137 17.5855 11.0137 17.5855 11.0314 17.6031C11.0491 17.6031 11.0668 17.6207 11.0845 17.6383C11.1022 17.6383 11.1022 17.6558 11.1199 17.6558C11.1376 17.6734 11.1553 17.6734 11.1731 17.691C11.1908 17.691 11.1908 17.7086 11.2085 17.7086C11.2262 17.7262 11.2439 17.7262 11.2616 17.7438L11.2793 17.7614C11.297 17.779 11.3147 17.7966 11.3147 17.7966L11.3324 17.8142C11.3501 17.8318 11.3501 17.8494 11.3678 17.8494C11.3678 17.8669 11.3855 17.8669 11.3855 17.8845C11.4032 17.9021 11.4032 17.9197 11.421 17.9373C11.421 17.9549 11.4387 17.9549 11.4387 17.9725C11.4564 17.9901 11.4564 18.0077 11.4741 18.0253C11.4741 18.0429 11.4918 18.0429 11.4918 18.0605C11.4918 18.0781 11.5095 18.0956 11.5095 18.1132C11.5095 18.1308 11.5272 18.1308 11.5272 18.1484C11.5272 18.166 11.5449 18.1836 11.5449 18.2012C11.5449 18.2188 11.5449 18.2188 11.5626 18.2364C11.5626 18.254 11.5803 18.2716 11.5803 18.2892C11.5803 18.3067 11.5803 18.3067 11.598 18.3243C11.598 18.3419 11.598 18.3595 11.6157 18.3947C11.6157 18.4123 11.6157 18.4123 11.6157 18.4299C11.6157 18.4651 11.6157 18.5003 11.6157 18.5354C11.6157 18.5706 11.6157 18.6058 11.6157 18.641C11.6157 18.6586 11.6157 18.6586 11.6157 18.6762C11.6157 18.6938 11.6157 18.7114 11.598 18.729C11.598 18.7465 11.598 18.7641 11.5803 18.7817C11.5803 18.7993 11.5803 18.8169 11.5626 18.8345C11.5626 18.8521 11.5449 18.8697 11.5449 18.8873C11.5449 18.9049 11.5272 18.9225 11.5272 18.9225C11.5272 18.9401 11.5095 18.9576 11.5095 18.9752C11.5095 18.9928 11.4918 18.9928 11.4918 19.0104C11.4741 19.028 11.4741 19.0456 11.4564 19.0632L11.4387 19.0808C11.421 19.0984 11.4032 19.116 11.4032 19.1336C11.4032 19.1336 11.4032 19.1512 11.3855 19.1512C11.3678 19.1688 11.3501 19.1863 11.3324 19.2039C11.3324 19.2039 11.3324 19.2039 11.3147 19.2215C11.297 19.2391 11.2793 19.2567 11.2616 19.2743C11.2439 19.2919 11.2085 19.3095 11.1908 19.3271C11.0314 19.4326 10.8543 19.503 10.6596 19.503C10.6418 19.503 10.6418 19.503 10.6241 19.503H10.6596C10.1815 19.5382 9.7565 19.7845 9.4909 20.1363C9.27842 20.4178 9.15447 20.752 9.15447 21.1215C9.15447 21.3677 9.20759 21.614 9.31383 21.8251C7.22442 20.6289 5.80786 18.3771 5.80786 15.8087L5.79016 15.8263ZM12.7667 7.62842C8.216 7.62842 4.51526 11.3051 4.51526 15.8263C4.51526 20.3474 8.216 24.0065 12.7667 24.0065C17.3174 24.0065 21.0181 20.3298 21.0181 15.8263C21.0181 11.3051 17.3174 7.62842 12.7667 7.62842Z" fill="#466068"/>
<path d="M15.5287 22.1763C15.3871 22.1411 15.2277 22.1059 15.0684 22.1059C15.1038 22.1059 15.1392 22.1059 15.1746 22.1059C14.6434 22.0707 14.2361 21.6485 14.2361 21.1208C14.2361 20.5754 14.6788 20.1356 15.2277 20.1356H15.7766C16.3079 20.1356 16.7682 19.8893 17.0692 19.5023C17.2817 19.2208 17.4057 18.8866 17.4057 18.5171C17.4057 18.1477 17.2817 17.7959 17.0692 17.532C16.7682 17.145 16.3079 16.8987 15.7766 16.8987H14.4309C13.882 16.8987 13.4393 16.4589 13.4393 15.9135C13.4393 15.3858 13.8466 14.9636 14.3601 14.9284C14.8559 14.9108 15.2808 14.6645 15.5642 14.2951C15.7766 14.0136 15.9006 13.6794 15.9006 13.3099C15.9006 12.9405 15.7766 12.5887 15.5642 12.3248C15.2808 11.9729 14.8559 11.7266 14.3778 11.6915C13.8466 11.6563 13.4393 11.2341 13.4393 10.7063C13.4393 10.161 13.882 9.72116 14.4309 9.72116H15.9891C18.2025 10.8822 19.7253 13.1868 19.7253 15.8608C19.7253 18.7107 17.99 21.1559 15.511 22.2115L15.5287 22.1763Z" fill="#73BF52"/>
<path d="M5.79004 15.8261C5.79004 14.5419 6.14418 13.3456 6.76392 12.3077H10.6063C11.1552 12.3077 11.5979 12.7475 11.5979 13.2928C11.5979 13.8206 11.1729 14.2604 10.6594 14.278C10.1814 14.3132 9.75639 14.5419 9.47308 14.9113C9.26059 15.1928 9.13665 15.527 9.13665 15.8964C9.13665 16.2659 9.26059 16.6177 9.47308 16.8816C9.75639 17.251 10.1814 17.4797 10.6771 17.5149C10.6594 17.5149 10.6594 17.5149 10.6594 17.5149C10.6771 17.5149 10.7126 17.5149 10.7303 17.5149C10.748 17.5149 10.748 17.5149 10.7657 17.5149C10.7834 17.5149 10.8011 17.5149 10.8188 17.5325C10.8365 17.5325 10.8365 17.5325 10.8542 17.5325C10.8719 17.5325 10.8896 17.5501 10.9073 17.5501C10.925 17.5501 10.925 17.5501 10.9427 17.5677C10.9605 17.5677 10.9782 17.5853 10.9959 17.5853C11.0136 17.5853 11.0136 17.5853 11.0313 17.6029C11.049 17.6029 11.0667 17.6205 11.0844 17.638C11.1021 17.638 11.1021 17.6556 11.1198 17.6556C11.1375 17.6732 11.1552 17.6732 11.1729 17.6908C11.1906 17.6908 11.1906 17.7084 11.2084 17.7084C11.2261 17.726 11.2438 17.726 11.2615 17.7436L11.2792 17.7612C11.2969 17.7788 11.3146 17.7964 11.3146 17.7964L11.3323 17.814C11.35 17.8316 11.35 17.8492 11.3677 17.8492C11.3677 17.8667 11.3854 17.8667 11.3854 17.8843C11.4031 17.9019 11.4031 17.9195 11.4208 17.9371C11.4208 17.9547 11.4385 17.9547 11.4385 17.9723C11.4563 17.9899 11.4563 18.0075 11.474 18.0251C11.474 18.0427 11.4917 18.0427 11.4917 18.0603C11.4917 18.0778 11.5094 18.0954 11.5094 18.113C11.5094 18.1306 11.5271 18.1306 11.5271 18.1482C11.5271 18.1658 11.5448 18.1834 11.5448 18.201C11.5448 18.2186 11.5448 18.2186 11.5625 18.2362C11.5625 18.2538 11.5802 18.2714 11.5802 18.2889C11.5802 18.3065 11.5802 18.3065 11.5979 18.3241C11.5979 18.3417 11.5979 18.3593 11.6156 18.3945C11.6156 18.4121 11.6156 18.4121 11.6156 18.4297C11.6156 18.4649 11.6156 18.5001 11.6156 18.5352C11.6156 18.5704 11.6156 18.6056 11.6156 18.6408C11.6156 18.6584 11.6156 18.6584 11.6156 18.676C11.6156 18.6936 11.6156 18.7112 11.5979 18.7287C11.5979 18.7463 11.5979 18.7639 11.5802 18.7815C11.5802 18.7991 11.5802 18.8167 11.5625 18.8343C11.5625 18.8519 11.5448 18.8695 11.5448 18.8871C11.5448 18.9047 11.5271 18.9223 11.5271 18.9223C11.5271 18.9399 11.5094 18.9574 11.5094 18.975C11.5094 18.9926 11.4917 18.9926 11.4917 19.0102C11.474 19.0278 11.474 19.0454 11.4563 19.063L11.4385 19.0806C11.4208 19.0982 11.4031 19.1158 11.4031 19.1334C11.4031 19.1334 11.4031 19.151 11.3854 19.151C11.3677 19.1685 11.35 19.1861 11.3323 19.2037C11.3323 19.2037 11.3323 19.2037 11.3146 19.2213C11.2969 19.2389 11.2792 19.2565 11.2615 19.2741C11.2438 19.2917 11.2084 19.3093 11.1906 19.3269C11.0313 19.4324 10.8542 19.5028 10.6594 19.5028C10.6417 19.5028 10.6417 19.5028 10.624 19.5028H10.6594C10.1814 19.538 9.75639 19.7843 9.49078 20.1361C9.2783 20.4176 9.15435 20.7518 9.15435 21.1213C9.15435 21.3675 9.20747 21.6138 9.31371 21.8249C7.2243 20.6287 5.80775 18.3769 5.80775 15.8085L5.79004 15.8261Z" fill="#73BF52"/>
<path d="M11.8458 22.6867C11.8104 22.634 11.7572 22.5988 11.7218 22.546L11.7041 22.5284C11.6687 22.4932 11.6333 22.4756 11.5979 22.4404C11.5802 22.4229 11.5802 22.4229 11.5625 22.4053C11.5447 22.3877 11.527 22.3701 11.4916 22.3525C11.4562 22.3349 11.4385 22.3173 11.4031 22.2997C11.3854 22.2821 11.3677 22.2821 11.35 22.2645C11.3146 22.2469 11.2791 22.2293 11.2437 22.2118C11.226 22.2118 11.2083 22.1942 11.2083 22.1942C11.1729 22.1766 11.1375 22.1766 11.1021 22.159C11.0844 22.159 11.0844 22.159 11.0667 22.1414C11.0312 22.1238 10.9781 22.1238 10.9427 22.1062C10.925 22.1062 10.925 22.1062 10.9073 22.1062C10.8542 22.1062 10.8188 22.0886 10.7656 22.0886H10.7479C10.6948 22.0886 10.6417 22.0886 10.5886 22.0886H10.7479C10.199 22.0886 9.75635 21.6488 9.75635 21.1035C9.75635 20.5757 10.1813 20.1359 10.6948 20.1183C10.6948 20.1183 10.624 20.1183 10.5886 20.1183C10.8719 20.1183 11.1552 20.0479 11.3854 19.9072C11.4208 19.8896 11.4562 19.8544 11.5093 19.8368C11.527 19.8368 11.527 19.8192 11.5447 19.8192C11.5802 19.8016 11.6156 19.7665 11.6333 19.7489C11.651 19.7313 11.651 19.7313 11.6687 19.7137C11.6864 19.6961 11.7041 19.6785 11.7218 19.6609C11.7395 19.6433 11.7749 19.6081 11.7926 19.5905C11.8104 19.573 11.8104 19.5554 11.8281 19.5554C11.8458 19.5378 11.8635 19.5202 11.8812 19.5026C11.952 19.4146 12.0228 19.3091 12.076 19.1859C12.076 19.1683 12.0937 19.1683 12.0937 19.1507C12.1114 19.1156 12.1114 19.098 12.1291 19.0628C12.1291 19.0452 12.1468 19.0276 12.1468 19.01C12.1468 18.9924 12.1645 18.9572 12.1645 18.9396C12.1645 18.9221 12.1822 18.8869 12.1822 18.8693C12.1822 18.8517 12.1999 18.8165 12.1999 18.7989C12.1999 18.7637 12.2176 18.7461 12.2176 18.7109C12.2176 18.6934 12.2176 18.6758 12.2176 18.6582C12.2176 18.6054 12.2176 18.5526 12.2176 18.4998C12.2176 18.1304 12.0937 17.7786 11.8812 17.5147C11.8635 17.4795 11.8281 17.4443 11.8104 17.4267L11.7926 17.4091C11.7572 17.374 11.7395 17.3564 11.7041 17.3212C11.651 17.2684 11.5979 17.2332 11.5447 17.198C11.527 17.1804 11.5093 17.1629 11.4739 17.1453C11.4031 17.0925 11.3146 17.0573 11.2437 17.0221C11.1906 17.0045 11.1552 16.9869 11.1021 16.9693C11.0844 16.9693 11.0844 16.9693 11.0667 16.9517C11.0312 16.9342 10.9781 16.9342 10.9427 16.9166H10.925C10.8719 16.899 10.8188 16.899 10.7834 16.899H10.7656C10.7479 16.899 10.7125 16.899 10.6948 16.899C10.6771 16.899 10.6417 16.899 10.624 16.899H10.7834C10.2344 16.899 9.79176 16.4592 9.79176 15.9138C9.79176 15.3861 10.2167 14.9463 10.7302 14.9287C10.7302 14.9287 10.6594 14.9287 10.624 14.9287C10.6594 14.9287 10.6771 14.9287 10.6948 14.9287C10.7125 14.9287 10.7479 14.9287 10.7656 14.9287H10.7834C10.8365 14.9287 10.8896 14.9111 10.925 14.9111H10.9427C10.9781 14.8935 11.0312 14.8935 11.0667 14.8759C11.0844 14.8759 11.0844 14.8759 11.1021 14.8583C11.1552 14.8407 11.1906 14.8231 11.2437 14.8055C11.3323 14.7703 11.4031 14.7352 11.4739 14.6824C11.4916 14.6648 11.527 14.6472 11.5447 14.6296C11.5979 14.5944 11.6333 14.5592 11.6687 14.5241C11.6864 14.5065 11.6864 14.5065 11.7041 14.4889C11.7395 14.4537 11.7572 14.4361 11.7926 14.4009L11.8104 14.3833C11.8458 14.3481 11.8635 14.3305 11.8812 14.2954C12.0937 14.0139 12.2176 13.6796 12.2176 13.3102C12.2176 12.413 11.4916 11.6917 10.5886 11.6917H7.17114C8.44604 10.0029 10.4646 8.92981 12.7488 8.92981C13.2623 8.92981 13.7758 8.98259 14.2716 9.08814C13.4394 9.15851 12.8019 9.86218 12.8019 10.7066C12.8019 11.076 12.9259 11.4279 13.1384 11.6917C13.4394 12.0788 13.8998 12.3251 14.431 12.3251C14.3956 12.3251 14.3247 12.3251 14.3247 12.3251C14.8559 12.3602 15.2632 12.7825 15.2632 13.3102C15.2632 13.8556 14.8205 14.2954 14.2716 14.2954H14.431C14.3779 14.2954 14.3247 14.2954 14.2716 14.2954H14.2539C14.2008 14.2954 14.1654 14.313 14.1122 14.313C14.0945 14.313 14.0945 14.313 14.0768 14.313C14.0414 14.3305 13.9883 14.3305 13.9529 14.3481C13.9352 14.3481 13.9352 14.3481 13.9175 14.3657C13.8821 14.3833 13.8466 14.3833 13.8112 14.4009C13.7935 14.4009 13.7758 14.4185 13.7758 14.4185C13.7404 14.4361 13.705 14.4537 13.6696 14.4713C13.6519 14.4889 13.6342 14.4889 13.6165 14.5065C13.581 14.5241 13.5633 14.5416 13.5279 14.5592C13.5102 14.5768 13.4748 14.5944 13.4571 14.612C13.4394 14.612 13.4394 14.6296 13.4217 14.6296C13.3863 14.6648 13.3509 14.6824 13.3154 14.7176L13.2977 14.7352C13.2269 14.7879 13.1738 14.8583 13.1207 14.9287C12.9082 15.2101 12.7842 15.5444 12.7842 15.9138C12.7842 16.811 13.5102 17.5323 14.4133 17.5323H15.9184C15.8829 17.5323 15.8121 17.5323 15.8121 17.5323C16.3433 17.5675 16.7506 17.9897 16.7506 18.5174C16.7506 19.0628 16.3079 19.5026 15.759 19.5026H15.2101C14.307 19.5026 13.581 20.2239 13.581 21.121C13.581 21.4905 13.705 21.8423 13.9175 22.1062C14.0591 22.2821 14.2185 22.4229 14.4133 22.5284C13.8821 22.6691 13.3154 22.7395 12.7311 22.7395C12.4301 22.7395 12.1114 22.7219 11.8281 22.6867H11.8458Z" fill="#17AFE6"/>
<path d="M53.6518 32.4857H31.6776C31.3766 32.4857 31.1287 32.2394 31.1287 31.9403C31.1287 31.6412 31.3766 31.395 31.6776 31.395H53.6518C53.9529 31.395 54.2008 31.6412 54.2008 31.9403C54.2008 32.2394 53.9529 32.4857 53.6518 32.4857Z" fill="#73BF52"/>
<path d="M110.243 32.4857H88.269C87.968 32.4857 87.7201 32.2394 87.7201 31.9403C87.7201 31.6412 87.968 31.395 88.269 31.395H110.243C110.544 31.395 110.792 31.6412 110.792 31.9403C110.792 32.2394 110.544 32.4857 110.243 32.4857Z" fill="#73BF52"/>
<path d="M110.349 2.05107H31.6776C31.3766 2.05107 31.1287 1.69923 31.1287 1.40017C31.1287 1.10111 31.3766 0.749268 31.6776 0.749268H110.349C110.65 0.749268 110.898 1.10111 110.898 1.40017C110.898 1.69923 110.65 2.05107 110.349 2.05107Z" fill="#466068"/>
</svg>
