<svg width="111" height="35" viewBox="0 0 111 35" fill="white" xmlns="http://www.w3.org/2000/svg">
<path d="M33.8025 10.7393C33.8025 10.5634 33.9441 10.4226 34.1212 10.4226H34.9357C36.0513 10.4226 36.8481 10.5985 37.3085 10.968C37.7865 11.3374 38.1584 11.8828 38.4063 12.5688C38.6719 13.2901 38.8135 14.3456 38.8135 15.7178C38.8135 17.1252 38.6896 18.2335 38.4594 19.0075C38.2469 19.764 37.8751 20.3621 37.3616 20.7843C36.8658 21.1889 35.9981 21.4 34.7764 21.4H34.1212C33.9441 21.4 33.8025 21.2593 33.8025 21.0834V10.7217V10.7393ZM38.849 9.20878C38.0167 8.61065 36.7418 8.31158 35.0597 8.31158H31.5537C31.3766 8.31158 31.235 8.45232 31.235 8.62824V23.3351C31.235 23.5111 31.3766 23.6518 31.5537 23.6518H35.0597C36.7418 23.6518 38.0167 23.3351 38.8313 22.6842C39.6281 22.0509 40.2655 21.1537 40.6905 19.9927C41.1154 18.8492 41.3279 17.5122 41.3279 16.0169C41.3279 14.4512 41.1154 13.0614 40.7259 11.9004C40.3186 10.7217 39.6812 9.8069 38.849 9.20878Z"/>
<path d="M47.667 13.1492L49.1898 17.9166C49.2607 18.1101 49.1013 18.3212 48.8888 18.3212H46.2859C46.0734 18.3212 45.9141 18.1101 45.9849 17.9166L47.4723 13.1492V13.1316L47.5608 12.7797L47.667 13.1316V13.1492ZM46.3744 8.54006L41.8238 23.247C41.7529 23.4405 41.9123 23.6516 42.1248 23.6516H43.984C44.1257 23.6516 44.2496 23.5636 44.285 23.4229L45.1527 20.6258C45.1881 20.5026 45.312 20.3971 45.4537 20.3971H49.7387C49.8804 20.3971 50.0043 20.485 50.0398 20.6082L50.9074 23.4053C50.9428 23.5285 51.0668 23.6164 51.2084 23.6164H53.2447C53.4572 23.6164 53.6166 23.4053 53.5457 23.2118L48.9596 8.50488C48.9242 8.38174 48.8003 8.27618 48.6586 8.27618H46.7109C46.5692 8.27618 46.4453 8.36414 46.4098 8.50488L46.3744 8.54006Z"/>
<path d="M59.5837 18.8136V18.8312L59.4952 19.1655L59.389 18.8136L56.1663 8.53993C56.1309 8.41679 56.0069 8.32883 55.8653 8.32883H53.829C53.6165 8.32883 53.4572 8.53993 53.528 8.73344L58.1141 23.4403C58.1495 23.5635 58.2734 23.669 58.4151 23.669H60.3628C60.5045 23.669 60.6284 23.5811 60.6639 23.4403L65.2145 8.73344C65.2854 8.53993 65.126 8.32883 64.9135 8.32883H63.0543C62.9126 8.32883 62.7887 8.41679 62.7533 8.55752L59.5483 18.8312L59.5837 18.8136Z"/>
<path d="M66.8788 10.4226H69.4995C69.6765 10.4226 69.8182 10.5634 69.8182 10.7393V21.2417C69.8182 21.4176 69.6765 21.5584 69.4995 21.5584H66.8788C66.7018 21.5584 66.5601 21.6991 66.5601 21.875V23.3527C66.5601 23.5287 66.7018 23.6694 66.8788 23.6694H75.3073C75.4844 23.6694 75.6261 23.5287 75.6261 23.3527V21.875C75.6261 21.6991 75.4844 21.5584 75.3073 21.5584H72.6867C72.5096 21.5584 72.368 21.4176 72.368 21.2417V10.7393C72.368 10.5634 72.5096 10.4226 72.6867 10.4226H75.3073C75.4844 10.4226 75.6261 10.2819 75.6261 10.106V8.62824C75.6261 8.45232 75.4844 8.31158 75.3073 8.31158H66.8788C66.7018 8.31158 66.5601 8.45232 66.5601 8.62824V10.106C66.5601 10.2819 66.7018 10.4226 66.8788 10.4226Z"/>
<path d="M84.7984 17.1248L80.1769 8.48715C80.1238 8.3816 80.0176 8.32883 79.8936 8.32883H78.1583C77.9813 8.32883 77.8396 8.46956 77.8396 8.64548V23.3524C77.8396 23.5283 77.9813 23.669 78.1583 23.669H79.929C80.1061 23.669 80.2477 23.5283 80.2477 23.3524V13.6944V13.6768L80.3186 13.8527L85.4182 23.4931C85.4713 23.5987 85.5775 23.669 85.7015 23.669H87.4722C87.6492 23.669 87.7909 23.5283 87.7909 23.3524V8.64548C87.7909 8.46956 87.6492 8.32883 87.4722 8.32883H85.7015C85.5244 8.32883 85.3827 8.46956 85.3827 8.64548V16.9841C85.3827 17.3183 84.9401 17.4239 84.7984 17.1248Z"/>
<path d="M96.0773 7.8714C94.8555 7.8714 93.7046 8.20565 92.6953 8.85655C91.6683 9.50745 90.8715 10.4926 90.3226 11.7592C89.7737 13.0083 89.4904 14.4332 89.4904 15.9813C89.4904 17.547 89.7737 18.9895 90.3226 20.2386C90.8892 21.5052 91.686 22.4727 92.713 23.1236C93.74 23.7746 94.8733 24.0912 96.0773 24.0912C96.9804 24.0912 98.0251 23.8801 99.1583 23.4579C99.2823 23.4051 99.3708 23.2996 99.3708 23.1588V21.4172C99.3708 21.1709 99.1052 21.0302 98.8927 21.1533C97.9188 21.7163 96.945 21.9978 96.0065 21.9978C95.3159 21.9978 94.6962 21.7691 94.1296 21.3117C93.5629 20.8543 93.0671 20.133 92.6953 19.1655C92.3058 18.1979 92.111 17.1248 92.111 15.9813C92.111 14.8554 92.3058 13.7999 92.6776 12.8323C93.0494 11.8824 93.5275 11.1611 94.1119 10.6861C94.6962 10.2111 95.3159 9.98244 96.0065 9.98244C96.9627 9.98244 97.9365 10.2639 98.8927 10.8269C99.1052 10.95 99.3708 10.7917 99.3708 10.563V8.82137C99.3708 8.69822 99.2823 8.57508 99.1583 8.5223C98.0251 8.10009 96.9804 7.88899 96.0773 7.88899V7.8714Z"/>
<path d="M110.774 10.106V8.62824C110.774 8.45232 110.633 8.31158 110.456 8.31158H102.027C101.85 8.31158 101.708 8.45232 101.708 8.62824V10.106C101.708 10.2819 101.85 10.4226 102.027 10.4226H104.648C104.825 10.4226 104.967 10.5634 104.967 10.7393V21.2417C104.967 21.4176 104.825 21.5584 104.648 21.5584H102.027C101.85 21.5584 101.708 21.6991 101.708 21.875V23.3527C101.708 23.5287 101.85 23.6694 102.027 23.6694H110.456C110.633 23.6694 110.774 23.5287 110.774 23.3527V21.875C110.774 21.6991 110.633 21.5584 110.456 21.5584H107.835C107.658 21.5584 107.516 21.4176 107.516 21.2417V10.7393C107.516 10.5634 107.658 10.4226 107.835 10.4226H110.456C110.633 10.4226 110.774 10.2819 110.774 10.106Z"/>
<path d="M58.9992 29.703H60.3626C60.4512 29.703 60.522 29.7734 60.522 29.8613V34.5232C60.522 34.6112 60.5928 34.6815 60.6814 34.6815H61.248C61.3365 34.6815 61.4073 34.6112 61.4073 34.5232V29.8613C61.4073 29.7734 61.4782 29.703 61.5667 29.703H62.9301C63.0187 29.703 63.0895 29.6326 63.0895 29.5447V29.0873C63.0895 28.9993 63.0187 28.929 62.9301 28.929H58.9815C58.893 28.929 58.8221 28.9993 58.8221 29.0873V29.5447C58.8221 29.6326 58.893 29.703 58.9815 29.703H58.9992Z"/>
<path d="M67.6582 34.1184C67.3395 34.1184 67.0739 33.9425 66.8437 33.5555C66.6135 33.1685 66.5072 32.5703 66.5072 31.7787C66.5072 30.9871 66.6312 30.3889 66.8437 30.0195C67.0739 29.6501 67.3395 29.4566 67.6582 29.4566C67.9769 29.4566 68.2425 29.6325 68.4727 30.0195C68.7029 30.4065 68.8091 31.0047 68.8091 31.7787C68.8091 32.5703 68.6852 33.1685 68.4727 33.5555C68.2425 33.9249 67.9769 34.1184 67.6582 34.1184ZM67.6582 28.7529C66.9853 28.7529 66.4718 29.0344 66.1177 29.5973C65.7813 30.1427 65.6042 30.8815 65.6042 31.7963C65.6042 32.7111 65.7813 33.4675 66.1177 34.0129C66.4718 34.5758 66.9853 34.8573 67.6582 34.8573C68.3311 34.8573 68.8446 34.5758 69.1987 34.0129C69.5351 33.4675 69.7122 32.7287 69.7122 31.7963C69.7122 30.8815 69.5351 30.1427 69.1987 29.5973C68.8446 29.0344 68.3311 28.7529 67.6582 28.7529Z"/>
<path d="M75.3781 32.3952C75.3781 32.9757 75.3427 33.3627 75.2541 33.5738C75.1833 33.7674 75.0771 33.9081 74.9177 33.9961C74.7584 34.084 74.5813 34.1368 74.3688 34.1368C74.174 34.1368 73.997 34.1016 73.8553 34.0136C73.6959 33.9257 73.5897 33.8025 73.5189 33.6442C73.448 33.4859 73.4126 33.1516 73.4126 32.6942V29.1055C73.4126 29.0175 73.3418 28.9471 73.2533 28.9471H72.6866C72.5981 28.9471 72.5273 29.0175 72.5273 29.1055V32.6063C72.5273 33.31 72.5981 33.785 72.7398 34.0488C72.8814 34.3303 73.1116 34.5238 73.3949 34.6646C73.6782 34.8053 73.997 34.8757 74.3688 34.8757C74.7584 34.8757 75.0948 34.8053 75.3604 34.647C75.626 34.4886 75.8385 34.2599 75.9978 33.9433C76.1572 33.6442 76.2457 33.2044 76.2457 32.6767V29.1055C76.2457 29.0175 76.1749 28.9471 76.0864 28.9471H75.5729C75.4843 28.9471 75.4135 29.0175 75.4135 29.1055V32.4128L75.3781 32.3952Z"/>
<path d="M80.1765 29.8093C80.1765 29.7214 80.2474 29.651 80.3359 29.651H80.6369C81.115 29.651 81.4514 29.7214 81.6285 29.8621C81.8056 30.0028 81.8941 30.1787 81.8941 30.425C81.8941 30.5658 81.8587 30.6889 81.8056 30.8296C81.7525 30.9704 81.6639 31.0935 81.5577 31.2167C81.4691 31.3222 81.3098 31.4454 81.115 31.5509C81.0973 31.5685 81.0619 31.5685 81.0265 31.5685H80.3182C80.2297 31.5685 80.1588 31.4981 80.1588 31.4102V29.8093H80.1765ZM81.7702 32.149C81.717 32.0787 81.7525 31.9731 81.8233 31.9203C82.0181 31.7972 82.1597 31.6741 82.2837 31.5333C82.443 31.3574 82.567 31.1463 82.6555 30.9176C82.744 30.6889 82.7972 30.4602 82.7972 30.2315C82.7972 29.9852 82.7263 29.7565 82.5847 29.5454C82.443 29.3343 82.2482 29.176 82.0004 29.0529C81.7525 28.9473 81.3806 28.8945 80.8848 28.8945H79.4683C79.3797 28.8945 79.3089 28.9649 79.3089 29.0529V34.4888C79.3089 34.5767 79.3797 34.6471 79.4683 34.6471H80.0349C80.1234 34.6471 80.1942 34.5767 80.1942 34.4888V32.4305C80.1942 32.3426 80.2651 32.2722 80.3536 32.2722H80.7077C80.7609 32.2722 80.814 32.3074 80.8494 32.3426L82.2482 34.5591C82.2837 34.6119 82.3368 34.6295 82.3899 34.6295H83.0628C83.1867 34.6295 83.2753 34.4888 83.2044 34.3832L81.7879 32.1139L81.7702 32.149Z"/>
<path d="M53.6518 32.166H31.6776C31.3766 32.166 31.1287 31.9197 31.1287 31.6206C31.1287 31.3216 31.3766 31.0753 31.6776 31.0753H53.6518C53.9529 31.0753 54.2008 31.3216 54.2008 31.6206C54.2008 31.9197 53.9529 32.166 53.6518 32.166Z"/>
<path d="M110.243 32.166H88.269C87.968 32.166 87.7201 31.9197 87.7201 31.6206C87.7201 31.3216 87.968 31.0753 88.269 31.0753H110.243C110.544 31.0753 110.792 31.3216 110.792 31.6206C110.792 31.9197 110.544 32.166 110.243 32.166Z"/>
<path d="M110.349 1.74958H31.6776C31.3766 1.74958 31.1287 1.39774 31.1287 1.09868C31.1287 0.799621 31.3766 0.447784 31.6776 0.447784H110.349C110.65 0.447784 110.898 0.799621 110.898 1.09868C110.898 1.39774 110.65 1.74958 110.349 1.74958Z"/>
<path d="M12.959 1.62687C11.0289 1.62687 9.09887 2.08426 7.41671 3.01663C4.14093 4.8286 2.67126 7.9072 2.0161 10.1766C1.20159 13.0089 1.18388 16.2458 1.92757 19.0605C3.94616 26.6426 11.206 32.2545 12.6402 33.1517C13.3485 32.7295 15.3317 31.2869 17.4388 29.1231C19.5814 26.9241 22.3613 23.4409 23.5831 19.2892C24.4153 16.3865 24.433 13.0441 23.6008 10.1062C22.9457 7.78406 21.4583 4.63509 18.1117 2.8759C16.5358 2.04907 14.7474 1.64446 12.9236 1.64446L12.959 1.62687ZM12.658 34.5238L12.4632 34.4535C11.8966 34.26 9.48842 32.5184 7.09799 29.9851C4.86692 27.6278 1.94528 23.8807 0.741206 19.3948C-0.0733117 16.3689 -0.0378979 12.8857 0.82974 9.84232C1.85674 6.25355 3.92845 3.5268 6.83238 1.92593C10.4623 -0.0795548 15.1546 -0.132331 18.7668 1.7676C22.5207 3.7379 24.1674 7.20352 24.8757 9.77195C25.7611 12.9209 25.7611 16.5273 24.858 19.641C22.4145 28.0676 13.8974 34.1368 12.8881 34.4535L12.6934 34.5238H12.658Z"/>
<path d="M12.8195 8.57537C8.99482 8.57537 5.89611 11.6716 5.89611 15.4538C5.89611 19.2537 9.01253 22.3323 12.8195 22.3323C16.6442 22.3323 19.7429 19.2361 19.7429 15.4538C19.7429 11.654 16.6265 8.57537 12.8195 8.57537ZM12.8195 23.5989C8.30425 23.5989 4.62122 19.9398 4.62122 15.4538C4.62122 10.9679 8.30425 7.30875 12.8195 7.30875C17.3348 7.30875 21.0178 10.9679 21.0178 15.4538C21.0178 19.9398 17.3348 23.5989 12.8195 23.5989Z"/>
<path d="M11.3308 14.4156C11.3138 14.4156 11.2968 14.4327 11.2968 14.4327C11.3138 14.4327 11.3308 14.4156 11.3308 14.4156Z"/>
<path d="M11.6312 14.2396C11.6141 14.2568 11.5969 14.2741 11.5626 14.2913C11.5798 14.2741 11.6141 14.2568 11.6312 14.2396Z"/>
<path d="M11.1894 14.4683C11.1723 14.4683 11.1723 14.4683 11.1553 14.4854C11.1723 14.4854 11.1723 14.4854 11.1894 14.4683Z"/>
<path d="M11.7928 14.1164C11.8626 14.0636 11.9149 13.9932 11.9671 13.9229C11.9149 13.9932 11.8626 14.0636 11.7928 14.1164Z"/>
<path d="M10.677 11.3201H6.83459V11.9534H10.677C11.2259 11.9534 11.6686 12.3932 11.6686 12.9385C11.6686 13.4663 11.2436 13.8885 10.7301 13.9237C10.7655 13.9237 10.8009 13.9237 10.8364 13.9237H11.9696C12.1821 13.6598 12.306 13.308 12.306 12.9385C12.306 12.0413 11.58 11.3201 10.677 11.3201Z"/>
<path d="M11.4895 14.3458C11.4725 14.3629 11.4554 14.3629 11.4384 14.3801C11.4554 14.3629 11.4725 14.3629 11.4895 14.3458Z"/>
<path d="M11.7748 14.1343C11.7394 14.1695 11.704 14.1871 11.6686 14.2223C11.704 14.1871 11.7394 14.1695 11.7748 14.1343Z"/>
<path d="M10.8365 13.9229C10.3053 13.9229 9.84496 14.1691 9.56165 14.5562H10.6949C10.748 14.5562 10.8011 14.5562 10.8365 14.5562H10.8543C10.9074 14.5562 10.9428 14.5386 10.9959 14.5386C11.0136 14.5386 11.0136 14.5386 11.0313 14.5386C11.0667 14.521 11.1199 14.521 11.1553 14.5034C11.173 14.5034 11.173 14.5034 11.1907 14.4858C11.2261 14.4682 11.2615 14.4682 11.2969 14.4506C11.3146 14.4506 11.3323 14.433 11.3323 14.433C11.3678 14.4154 11.4032 14.3978 11.4386 14.3802C11.4563 14.3626 11.474 14.3626 11.4917 14.3451C11.5271 14.3275 11.5448 14.3099 11.5802 14.2923C11.5979 14.2747 11.6334 14.2571 11.6511 14.2395C11.6688 14.2395 11.6688 14.2219 11.6865 14.2219C11.7219 14.1867 11.7573 14.1691 11.7927 14.134L11.8104 14.1164C11.8813 14.0636 11.9344 13.9932 11.9875 13.9229H10.8543H10.8365Z"/>
<path d="M10.6769 16.5094H10.8363C10.2874 16.5094 9.84472 16.0696 9.84472 15.5242C9.84472 14.9965 10.2697 14.5743 10.7832 14.5391C10.7832 14.5391 10.7124 14.5391 10.6769 14.5391H9.54371C9.33122 14.803 9.20728 15.1548 9.20728 15.5242C9.20728 15.8937 9.33122 16.2279 9.54371 16.5094H10.6769Z"/>
<path d="M11.8634 14.0463C11.828 14.0815 11.7926 14.1167 11.7572 14.1343C11.7926 14.0991 11.828 14.0639 11.8634 14.0463Z"/>
<path d="M11.9668 13.9229C11.9324 13.9573 11.9153 13.9918 11.881 14.0263C11.9153 13.9918 11.9324 13.9573 11.9668 13.9229Z"/>
<path d="M11.527 14.3102C11.6155 14.2575 11.6863 14.2047 11.7572 14.1343C11.6863 14.2047 11.5978 14.2575 11.527 14.3102Z"/>
<path d="M10.8365 13.9229C10.3053 13.9229 9.84496 14.1691 9.56165 14.5562H10.6949C11.2261 14.5562 11.6865 14.3099 11.9698 13.9229H10.8365Z"/>
<path d="M11.9696 17.1428H10.8364C10.801 17.1428 10.7301 17.1428 10.7301 17.1428C11.2436 17.178 11.6686 17.6002 11.6686 18.128C11.6686 18.6733 11.2259 19.1131 10.677 19.1131H11.9519H11.9696C12.1821 18.8492 12.306 18.4974 12.306 18.128C12.306 17.7585 12.1821 17.4243 11.9696 17.1428Z"/>
<path d="M10.6771 16.5094H9.54382C9.84484 16.8964 10.3052 17.1427 10.8187 17.1427H11.952C11.6509 16.7557 11.1906 16.5094 10.6771 16.5094Z"/>
<path d="M11.2968 16.6328C11.3138 16.6328 11.3308 16.6499 11.3308 16.6499C11.3138 16.6499 11.2968 16.6328 11.2968 16.6328Z"/>
<path d="M11.1553 16.5802C11.1723 16.5802 11.1723 16.5802 11.1894 16.5973C11.1723 16.5973 11.1723 16.5973 11.1553 16.5802Z"/>
<path d="M11.4384 16.7026C11.4554 16.7197 11.4725 16.7197 11.4895 16.7369C11.4725 16.7197 11.4554 16.7197 11.4384 16.7026Z"/>
<path d="M11.5626 16.7735C11.5798 16.7907 11.6141 16.8079 11.6312 16.8252C11.6141 16.8079 11.5969 16.7907 11.5626 16.7735Z"/>
<path d="M12.3063 18.128C12.3063 17.7585 12.1823 17.4243 11.9698 17.1428H10.8366C10.8012 17.1428 10.7835 17.1428 10.7481 17.1428C11.2616 17.178 11.6688 17.6002 11.6688 18.128C11.6688 18.6557 11.2439 19.0955 10.7126 19.1131V19.7464C11.598 19.7288 12.2886 19.0076 12.2886 18.128H12.3063Z"/>
<path d="M11.6686 16.8433C11.704 16.8785 11.7394 16.8961 11.7748 16.9313C11.7394 16.8961 11.704 16.8785 11.6686 16.8433Z"/>
<path d="M11.9671 17.1431C11.9149 17.0727 11.8626 17.0023 11.7928 16.9496C11.8626 17.0023 11.9149 17.0727 11.9671 17.1431Z"/>
<path d="M10.8364 17.143H11.9697C11.9165 17.0727 11.8634 17.0023 11.7926 16.9495L11.7749 16.9319C11.7395 16.8967 11.7041 16.8792 11.6687 16.844C11.6509 16.8264 11.6509 16.8264 11.6332 16.8088C11.6155 16.7912 11.5978 16.7736 11.5624 16.756C11.527 16.7384 11.5093 16.7208 11.4739 16.7032C11.4562 16.6856 11.4385 16.6856 11.4208 16.668C11.3853 16.6505 11.3499 16.6329 11.3145 16.6153C11.2968 16.6153 11.2791 16.5977 11.2791 16.5977C11.2437 16.5801 11.2083 16.5801 11.1729 16.5625C11.1552 16.5625 11.1552 16.5625 11.1374 16.5449C11.102 16.5273 11.0489 16.5273 11.0135 16.5097C10.9958 16.5097 10.9958 16.5097 10.9781 16.5097C10.925 16.5097 10.8895 16.4921 10.8364 16.4921H10.8187C10.7656 16.4921 10.7125 16.4921 10.6771 16.4921H9.54382C9.84484 16.8792 10.3052 17.1254 10.8187 17.1254L10.8364 17.143Z"/>
<path d="M10.6769 21.6987H10.8363C10.2874 21.6987 9.84472 21.2589 9.84472 20.7135C9.84472 20.1858 10.2697 19.7635 10.7832 19.7284C10.7832 19.7284 10.7124 19.7284 10.6769 19.7284H9.54371C9.33122 19.9922 9.20728 20.3441 9.20728 20.7135C9.20728 21.0829 9.33122 21.4172 9.54371 21.6987H10.6769Z"/>
<path d="M10.8365 19.1131C10.3053 19.1131 9.84496 19.3594 9.56165 19.7464H10.6949C11.2261 19.7464 11.6865 19.5001 11.9698 19.1131H10.8365Z"/>
<path d="M10.8364 22.3319H11.9697C11.9165 22.2615 11.8634 22.1912 11.7926 22.1384L11.7749 22.1208C11.7395 22.0856 11.7041 22.068 11.6687 22.0329C11.6509 22.0329 11.6509 22.0153 11.6332 22.0153C11.6155 21.9977 11.5978 21.9801 11.5624 21.9625C11.527 21.9449 11.5093 21.9273 11.4739 21.9097C11.4562 21.8921 11.4385 21.8921 11.4208 21.8745C11.3853 21.8569 11.3499 21.8393 11.3145 21.8218C11.2968 21.8218 11.2791 21.8042 11.2791 21.8042C11.2437 21.7866 11.2083 21.7866 11.1729 21.769C11.1552 21.769 11.1552 21.769 11.1374 21.7514C11.102 21.7338 11.0489 21.7338 11.0135 21.7162C10.9958 21.7162 10.9958 21.7162 10.9781 21.7162C10.925 21.7162 10.8895 21.6986 10.8364 21.6986H10.8187C10.7656 21.6986 10.7125 21.6986 10.6771 21.6986H9.54382C9.84484 22.0856 10.3052 22.3319 10.8187 22.3319H10.8364Z"/>
<path d="M17.459 18.1275C17.459 17.758 17.3351 17.4238 17.1226 17.1423C16.8216 16.7553 16.3612 16.509 15.8477 16.509H14.502C13.9531 16.509 13.5104 16.0692 13.5104 15.5239C13.5104 15.0137 13.9176 14.5739 14.4311 14.5387C14.9092 14.5211 15.3519 14.2748 15.6352 13.9054C15.8477 13.6415 15.9716 13.2897 15.9716 12.9203C15.9716 12.5508 15.8477 12.2166 15.6352 11.9351C15.3519 11.5833 14.9269 11.337 14.4488 11.3018C13.9353 11.2666 13.5104 10.8444 13.5104 10.3166C13.5104 9.77129 13.9531 9.33149 14.502 9.33149H16.131C16.1133 9.33149 16.1133 9.3139 16.0956 9.3139C16.0956 9.3139 16.0956 9.3139 16.0779 9.29631C16.0779 9.29631 15.3342 8.8741 15.3165 8.69818H14.502C13.5989 8.69818 12.8729 9.41945 12.8729 10.3166C12.8729 10.6861 12.9969 11.0203 13.2094 11.3018C13.5104 11.6888 13.9708 11.9351 14.4843 11.9351C14.4488 11.9351 14.378 11.9351 14.378 11.9351C14.8915 11.9703 15.3165 12.3925 15.3165 12.9203C15.3165 13.4656 14.8738 13.9054 14.3249 13.9054H14.4843C14.4311 13.9054 14.378 13.9054 14.3426 13.9054H14.3249C14.2718 13.9054 14.2364 13.923 14.1832 13.923C14.1655 13.923 14.1655 13.923 14.1478 13.923C14.1124 13.9406 14.0593 13.9406 14.0239 13.9582C14.0062 13.9582 14.0062 13.9582 13.9885 13.9758C13.9531 13.9934 13.9176 13.9934 13.8822 14.011C13.8645 14.011 13.8468 14.0285 13.8468 14.0285C13.8114 14.0461 13.776 14.0637 13.7406 14.0813C13.7229 14.0989 13.7052 14.0989 13.6874 14.1165C13.652 14.1341 13.6343 14.1517 13.5989 14.1693C13.5812 14.1869 13.5458 14.2045 13.5281 14.2221C13.5104 14.2396 13.5104 14.2396 13.4927 14.2396C13.4573 14.2748 13.4218 14.2924 13.3864 14.3276L13.3687 14.3452C13.2979 14.398 13.2448 14.4683 13.1917 14.5387C12.9792 14.8026 12.8552 15.1544 12.8552 15.5239C12.8552 16.4211 13.5812 17.1423 14.4843 17.1423H15.9893C15.9539 17.1423 15.8831 17.1423 15.8831 17.1423C16.3966 17.1775 16.8216 17.5997 16.8216 18.1275C16.8216 18.6728 16.3789 19.1126 15.83 19.1126H15.2811C14.378 19.1126 13.652 19.8339 13.652 20.7311C13.652 21.1005 13.776 21.4348 13.9885 21.7162H15.1217C15.1571 21.7162 15.1925 21.7162 15.228 21.7162C14.7145 21.681 14.2895 21.2588 14.2895 20.7311C14.2895 20.1857 14.7322 19.7459 15.2811 19.7459H15.83C16.3435 19.7459 16.8216 19.4996 17.1049 19.1126C17.3174 18.8487 17.4413 18.4969 17.4413 18.1275H17.459Z"/>
<path d="M15.1038 22.227C15.2632 22.1038 15.4934 21.9455 15.759 21.84C15.5642 21.752 15.3517 21.7168 15.1215 21.7168H13.9883C14.2362 22.0335 14.608 22.2622 15.033 22.3325C15.0507 22.2974 15.0684 22.2622 15.1038 22.2446V22.227Z"/>
</svg>
