<svg width="42" height="42" viewBox="0 0 42 42" fill="none" xmlns="http://www.w3.org/2000/svg">
<path fill-rule="evenodd" clip-rule="evenodd" d="M40.46 0.07L40.8333 0C41.4867 0 42 0.513333 42 1.16667V36.4467C42 36.9833 41.65 37.4033 41.16 37.5667L28 42L14 37.1L1.54 41.93L1.16667 42C0.513333 42 0 41.4867 0 40.8333V5.55333C0 5.01667 0.35 4.59667 0.84 4.43333L14 0L28 4.9L40.46 0.07ZM25.6667 9.02998L16.3333 5.76332V32.97L25.6667 36.2366V9.02998ZM4.66666 8.07329L11.6667 5.71662V33.0166L4.66666 35.7233V8.07329ZM30.3333 36.2833L37.3333 33.9266V6.29994L30.3333 9.00661V36.2833Z" fill="#F55170"/>
</svg>
