<svg width="50" height="49" viewBox="0 0 50 49" fill="none" xmlns="http://www.w3.org/2000/svg">
<path d="M1.13177 48.3073V34.2551C1.13177 31.4937 3.37035 29.2551 6.13177 29.2551H9.00663M35.6796 32.9385L31.2341 40.1783V34.2551C31.2341 31.4937 28.9955 29.2551 26.2341 29.2551H23.9943M35.6796 32.9385H43.0464M35.6796 32.9385V32.9385C35.6796 30.4832 37.67 28.4928 40.1253 28.4928H48L47.9461 28.8073C47.537 31.1938 45.4678 32.9385 43.0464 32.9385V32.9385M43.0464 32.9385L33.7744 48.3073M9.00663 29.2551L12.563 34.2086M9.00663 29.2551H13.3251M23.9943 29.2551L20.0569 34.2086M23.9943 29.2551H19.4218M12.563 34.2086L16.1194 39.1622L20.0569 34.2086M12.563 34.2086H20.0569M10.4038 26.4605V26.4605C7.17698 26.4605 4.56113 23.8447 4.56113 20.6179V12.6929C4.56113 6.61775 9.486 1.69287 15.5611 1.69287H17.6777C23.2006 1.69287 27.6777 6.17002 27.6777 11.6929V20.9989C27.6777 24.0153 25.2325 26.4605 22.2161 26.4605V26.4605M13.3251 29.2551V24.4284M13.3251 29.2551H19.4218M13.3251 24.4284V24.4284C10.9401 24.4284 9.00663 22.495 9.00663 20.1099V14.7754V14.7754C14.2318 13.863 19.0864 11.4735 22.9965 7.88934L23.1052 7.78966V20.745C23.1052 22.7793 21.4561 24.4284 19.4218 24.4284V24.4284M13.3251 24.4284H19.4218M19.4218 24.4284V29.2551M25.4701 48.0532V47.1315C25.4701 46.027 26.461 45.0345 27.1458 44.1678C27.6759 43.4971 28.0104 42.5902 28.0104 41.8293V40.9402C28.0104 39.3356 26.7097 37.2567 25.1052 37.2567M7.10142 48.0532V47.1315C7.10142 46.027 6.1106 45.0345 5.42574 44.1678C4.89569 43.4971 4.56113 42.5902 4.56113 41.8293V40.9402C4.56113 39.3356 5.86184 37.2567 7.46635 37.2567M34.6161 5.2749H38.6161M41.3661 5.2749H43.0464M34.6161 8.6499H43.0464M34.6161 11.7749H38.6161M36.5687 16.2995H34.2341C32.5773 16.2995 31.2341 14.9564 31.2341 13.2995V4.69287C31.2341 3.03602 32.5773 1.69287 34.2341 1.69287H44.2379C45.8948 1.69287 47.2379 3.03602 47.2379 4.69287V13.2995C47.2379 14.9564 45.8948 16.2995 44.2379 16.2995H40.5061L36.5687 20.2369V16.2995Z" stroke="#3170C9" stroke-width="2"/>
</svg>
