<svg width="50" height="49" viewBox="0 0 50 49" fill="none" xmlns="http://www.w3.org/2000/svg">
<path fill-rule="evenodd" clip-rule="evenodd" d="M15.4953 2.56689C9.97243 2.56689 5.49528 7.04405 5.49528 12.5669V20.4919C5.49528 23.1664 7.66341 25.3346 10.3379 25.3346V27.3346C6.55884 27.3346 3.49528 24.271 3.49528 20.4919V12.5669C3.49528 5.93949 8.86786 0.566895 15.4953 0.566895H17.6119C23.687 0.566895 28.6119 5.49176 28.6119 11.5669V20.8729C28.6119 24.4416 25.7189 27.3346 22.1502 27.3346V25.3346C24.6143 25.3346 26.6119 23.337 26.6119 20.8729V11.5669C26.6119 6.59633 22.5824 2.56689 17.6119 2.56689H15.4953ZM30.1683 4.56689C30.1683 2.35776 31.9591 0.566895 34.1683 0.566895H44.172C46.3812 0.566895 48.172 2.35776 48.172 4.5669V13.1735C48.172 15.3827 46.3812 17.1735 44.172 17.1735H40.8545L35.5029 22.5252V17.1735H34.1683C31.9591 17.1735 30.1683 15.3827 30.1683 13.1735V4.56689ZM34.1683 2.56689C33.0637 2.56689 32.1683 3.46233 32.1683 4.56689V13.1735C32.1683 14.2781 33.0637 15.1735 34.1683 15.1735H37.5029V17.6968L40.0261 15.1735H44.172C45.2766 15.1735 46.172 14.2781 46.172 13.1735V4.5669C46.172 3.46233 45.2766 2.56689 44.172 2.56689H34.1683ZM38.5502 6.14893H34.5502V4.14893H38.5502V6.14893ZM42.9806 6.14893H41.3002V4.14893H42.9806V6.14893ZM24.0393 5.39047V20.619C24.0393 22.8624 22.462 24.7374 20.3559 25.1954V28.1291H26.1683C29.482 28.1291 32.1683 30.8154 32.1683 34.1291V36.5126L34.6216 32.5172C34.775 29.6469 37.151 27.3668 40.0595 27.3668H49.1201L48.8658 28.8502C48.4075 31.5238 46.2149 33.5266 43.5621 33.7844L34.5648 48.6979L32.8523 47.6648L41.2094 33.8125H36.1732L30.1683 43.5919V34.1291C30.1683 31.92 28.3774 30.1291 26.1683 30.1291H24.411L16.013 40.6943L8.42769 30.1291H6.06592C3.85678 30.1291 2.06592 31.92 2.06592 34.1291V48.1814H0.065918V34.1291C0.065918 30.8154 2.75221 28.1291 6.06592 28.1291H12.2593V25.2086C9.79998 24.7407 7.94077 22.5794 7.94077 19.984V14.6495H8.94077L8.76876 13.6644C13.8058 12.7848 18.4856 10.4813 22.2549 7.0262L24.0393 5.39047ZM9.94077 15.4775V19.984C9.94077 21.8167 11.4265 23.3024 13.2593 23.3024H19.3559C20.8379 23.3024 22.0393 22.101 22.0393 20.619V9.83692C18.509 12.6359 14.3654 14.5706 9.94077 15.4775ZM14.2593 25.3024V28.1291H18.3559V25.3024H14.2593ZM10.8898 30.1291L13.0103 33.0826H19.5085L21.8561 30.1291H10.8898ZM17.9187 35.0826H14.4462L16.0941 37.378L17.9187 35.0826ZM36.7611 31.8125C37.1896 30.3972 38.5042 29.3668 40.0595 29.3668H46.6475C46.0433 30.8211 44.612 31.8125 42.9806 31.8125H36.7611ZM42.9806 9.52393H34.5502V7.52393H42.9806V9.52393ZM38.5502 12.6489H34.5502V10.6489H38.5502V12.6489ZM4.53846 37.7812C5.16194 36.927 6.15139 36.1307 7.40049 36.1307V38.1307C7.04508 38.1307 6.58193 38.3739 6.15393 38.9603C5.73516 39.534 5.49528 40.2524 5.49528 40.8142V41.7033C5.49528 42.2124 5.73636 42.9054 6.14447 43.4218C6.22538 43.5242 6.32352 43.643 6.43082 43.7729C6.70002 44.0988 7.02686 44.4944 7.28377 44.8756C7.65787 45.4306 8.03556 46.1572 8.03556 47.0056V47.9273H6.03556V47.0056C6.03556 46.7494 5.91784 46.4274 5.62531 45.9934C5.42359 45.6941 5.20703 45.4326 4.96862 45.1448C4.84383 44.9941 4.71306 44.8362 4.5753 44.6619C3.92331 43.8368 3.49528 42.716 3.49528 41.7033V40.8142C3.49528 39.7714 3.90575 38.6481 4.53846 37.7812ZM26.2859 38.9603C25.8579 38.3739 25.3948 38.1307 25.0393 38.1307V36.1307C26.2884 36.1307 27.2779 36.927 27.9014 37.7812C28.5341 38.6481 28.9446 39.7714 28.9446 40.8142V41.7033C28.9446 42.716 28.5165 43.8368 27.8645 44.6619C27.7268 44.8362 27.596 44.9941 27.4712 45.1448C27.2328 45.4326 27.0162 45.6941 26.8145 45.9934C26.522 46.4274 26.4043 46.7494 26.4043 47.0056V47.9273H24.4043V47.0056C24.4043 46.1572 24.782 45.4306 25.1561 44.8756C25.413 44.4944 25.7398 44.0988 26.009 43.7729C26.1163 43.643 26.2145 43.5242 26.2954 43.4218C26.7035 42.9054 26.9446 42.2124 26.9446 41.7033V40.8142C26.9446 40.2524 26.7047 39.534 26.2859 38.9603Z" fill="#3170C9"/>
</svg>
