<svg width="40" height="40" viewBox="0 0 40 40" fill="none" xmlns="http://www.w3.org/2000/svg">
<path fill-rule="evenodd" clip-rule="evenodd" d="M16.9718 34.4288L18.6795 34.4288L21.7845 29.9266L23.4146 30.0042C24.3461 30.0042 25.1224 29.228 25.1224 28.2965C25.0447 27.5978 24.579 26.9768 23.958 26.8216L26.7525 22.7851L34.4373 23.018C38.3962 22.9404 39.0172 20.3011 39.0172 19.9906C39.0172 19.5249 38.2409 17.0409 34.3597 17.0409L26.7525 17.3514L23.958 13.3149C24.6566 13.0821 25.1224 12.4611 25.0447 11.7624C25.0447 10.8309 24.3461 10.1323 23.4146 10.1323L21.7845 10.0547L18.6019 5.6301L17.0494 5.6301L19.2229 17.5843L10.529 17.8948L7.42397 13.5478L6.72535 13.4702L6.72535 18.2829C6.10435 18.5934 5.71623 19.292 5.71623 19.913C5.63861 20.7669 6.10435 21.3879 6.72535 21.8536L6.72535 26.5111L7.50159 26.5111L10.4513 22.1641L19.2229 22.5522L16.9718 34.4288Z" fill="black"/>
</svg>
