<svg width="47" height="60" viewBox="0 0 47 60" fill="none" xmlns="http://www.w3.org/2000/svg">
<path d="M28.625 20.625H15.5V22.5H28.625V20.625Z"/>
<path d="M24.875 28.125H15.5V30H24.875V28.125Z"/>
<path d="M23 35.625H15.5V37.5H23V35.625Z"/>
<path d="M11.6844 19.1626L8.71719 22.1298L6.77187 20.1798L5.44531 21.5063L7.39063 23.4563L8.71719 24.7829L13.0109 20.4892L11.6844 19.1626Z" fill="url(#paint3_linear)"/>
<path d="M11.6844 26.7798L8.71719 29.747L6.77187 27.797L5.44531 29.1235L7.39063 31.0735L8.71719 32.4001L13.0109 28.1063L11.6844 26.7798Z" fill="url(#paint4_linear)"/>
<path d="M11.6844 34.2798L8.71719 37.247L6.77187 35.3017L5.44531 36.6235L7.39063 38.5735L8.71719 39.9001L13.0109 35.6063L11.6844 34.2798Z" fill="url(#paint5_linear)"/>
<path d="M35.1828 40.2939C37.7328 40.2939 39.8 38.2268 39.8 35.6768C39.8 33.1268 37.7328 31.0596 35.1828 31.0596C32.6328 31.0596 30.5656 33.1268 30.5656 35.6768C30.5656 38.2268 32.6328 40.2939 35.1828 40.2939Z" fill="url(#paint6_linear)"/>
<path d="M46.0484 35.2689C46.1981 35.0712 46.3071 34.8458 46.3691 34.6057C46.431 34.3656 46.4447 34.1156 46.4094 33.8702C46.3741 33.6247 46.2905 33.3887 46.1633 33.1758C46.0362 32.9629 45.8681 32.7774 45.6688 32.6299L44.8813 32.058C44.6231 31.8685 44.4178 31.6161 44.2849 31.3248C44.152 31.0335 44.0958 30.7131 44.1219 30.3939L44.2063 29.4236C44.2254 29.1765 44.1954 28.9281 44.1179 28.6926C44.0404 28.4572 43.917 28.2395 43.7549 28.052C43.5927 27.8646 43.395 27.7112 43.1732 27.6006C42.9513 27.4901 42.7098 27.4246 42.4625 27.408L41.4922 27.3517C41.1728 27.3318 40.8639 27.2304 40.5947 27.0573C40.3256 26.8842 40.1053 26.645 39.9547 26.3627L39.4859 25.5002C39.3682 25.2825 39.2085 25.0902 39.0161 24.9345C38.8237 24.7788 38.6023 24.6627 38.3648 24.593C38.1273 24.5233 37.8784 24.5013 37.6323 24.5283C37.3863 24.5552 37.148 24.6307 36.9313 24.7502L36.0875 25.2189C35.8081 25.3749 35.4934 25.4568 35.1734 25.4568C34.8534 25.4568 34.5388 25.3749 34.2594 25.2189L33.4156 24.7502C33.1989 24.6307 32.9606 24.5552 32.7146 24.5283C32.4685 24.5013 32.2196 24.5233 31.9821 24.593C31.7446 24.6627 31.5232 24.7788 31.3308 24.9345C31.1384 25.0902 30.9787 25.2825 30.8609 25.5002L30.3922 26.3627C30.2416 26.645 30.0213 26.8842 29.7521 27.0573C29.483 27.2304 29.1741 27.3318 28.8547 27.3517L27.8844 27.408C27.6371 27.4246 27.3955 27.4901 27.1737 27.6006C26.9519 27.7112 26.7542 27.8646 26.592 28.052C26.4299 28.2395 26.3065 28.4572 26.229 28.6926C26.1515 28.9281 26.1215 29.1765 26.1406 29.4236L26.225 30.3939C26.254 30.7121 26.2011 31.0325 26.0715 31.3245C25.9419 31.6166 25.7398 31.8707 25.4844 32.0627L24.6969 32.6346C24.4975 32.782 24.3294 32.9676 24.2023 33.1805C24.0752 33.3934 23.9915 33.6294 23.9562 33.8748C23.9209 34.1203 23.9346 34.3703 23.9966 34.6104C24.0585 34.8505 24.1675 35.0759 24.3172 35.2736L24.9125 36.0424C25.107 36.2965 25.2333 36.5962 25.2792 36.9129C25.3252 37.2296 25.2893 37.5528 25.175 37.8517L24.8234 38.7564C24.7358 38.9881 24.6948 39.2348 24.7031 39.4824C24.7113 39.73 24.7685 39.9734 24.8713 40.1988C24.9742 40.4241 25.1207 40.6268 25.3023 40.7952C25.484 40.9636 25.6972 41.0944 25.9297 41.1799L26.8672 41.5033C27.1679 41.6127 27.4355 41.7972 27.6448 42.0392C27.854 42.2812 27.9978 42.5728 28.0625 42.8861L28.2359 43.7439L25.8922 51.333L29.5625 50.1564L31.9063 53.2924L34.0016 46.4064C34.3151 46.6695 34.7071 46.821 35.116 46.8371C35.525 46.8533 35.9277 46.7331 36.2609 46.4955L38.4688 53.2924L40.775 50.1705L44.4781 51.333L42.0828 43.983C42.0828 43.9361 42.1156 43.8892 42.125 43.8424L42.3172 42.9049C42.3819 42.5915 42.5257 42.3 42.7349 42.0579C42.9442 41.8159 43.2118 41.6314 43.5125 41.5221L44.45 41.1986C44.6825 41.1131 44.8957 40.9824 45.0773 40.814C45.259 40.6456 45.4055 40.4429 45.5084 40.2175C45.6112 39.9922 45.6684 39.7487 45.6766 39.5011C45.6848 39.2536 45.6439 39.0068 45.5563 38.7752L45.2047 37.8705C45.0904 37.5716 45.0545 37.2484 45.1005 36.9316C45.1464 36.6149 45.2727 36.3152 45.4672 36.0611L46.0484 35.2689ZM35.1875 42.1877C33.9035 42.1877 32.6483 41.8069 31.5806 41.0936C30.513 40.3802 29.6809 39.3662 29.1895 38.18C28.6981 36.9937 28.5696 35.6883 28.8201 34.4289C29.0706 33.1696 29.6889 32.0128 30.5968 31.1048C31.5048 30.1969 32.6616 29.5786 33.9209 29.3281C35.1803 29.0775 36.4857 29.2061 37.672 29.6975C38.8582 30.1889 39.8722 31.021 40.5856 32.0886C41.2989 33.1563 41.6797 34.4115 41.6797 35.6955C41.6772 37.4166 40.9924 39.0664 39.7754 40.2834C38.5584 41.5004 36.9086 42.1852 35.1875 42.1877Z"/>
<path d="M34.25 55.4295V54.3748H32.375V55.4295C32.3578 56.1593 32.0522 56.8526 31.5251 57.3577C30.9981 57.8628 30.2924 58.1386 29.5625 58.1248H5.1875C4.4576 58.1386 3.75193 57.8628 3.22486 57.3577C2.69779 56.8526 2.39222 56.1593 2.375 55.4295V4.57012C2.39222 3.84029 2.69779 3.14699 3.22486 2.64188C3.75193 2.13677 4.4576 1.86097 5.1875 1.8748H9.875C9.89356 2.36616 10.0971 2.83236 10.4448 3.18005C10.7924 3.52774 11.2586 3.73124 11.75 3.7498H23C23.4864 3.7169 23.9445 3.50879 24.2892 3.16404C24.634 2.81928 24.8421 2.36125 24.875 1.8748H29.5625C30.2924 1.86097 30.9981 2.13677 31.5251 2.64188C32.0522 3.14699 32.3578 3.84029 32.375 4.57012V22.4998H34.25V4.57012C34.2327 3.34302 33.7296 2.17284 32.8509 1.31612C31.9722 0.459395 30.7896 -0.0139674 29.5625 -0.000195994H5.1875C3.96036 -0.0139674 2.77782 0.459395 1.89913 1.31612C1.02044 2.17284 0.517295 3.34302 0.5 4.57012V55.4295C0.517295 56.6566 1.02044 57.8268 1.89913 58.6835C2.77782 59.5402 3.96036 60.0136 5.1875 59.9998H29.5625C30.7896 60.0136 31.9722 59.5402 32.8509 58.6835C33.7296 57.8268 34.2327 56.6566 34.25 55.4295Z"/>
</svg>
