<svg width="57" height="57" viewBox="0 0 57 57" fill="none" xmlns="http://www.w3.org/2000/svg">
<path d="M0 24.8226C0 38.5099 11.1352 49.6452 24.8226 49.6452H25.7419V0H24.8226C11.1352 0 0 11.1352 0 24.8226ZM15.9499 37.9087C18.0138 37.3065 20.6395 36.8707 23.9032 36.7981V47.0581C22.0112 45.7342 18.5057 42.8042 15.9499 37.9087ZM21.5414 47.5711C16.8178 46.8926 12.5556 44.7717 9.21194 41.6707C9.67897 41.1347 11.1545 39.6931 14.1893 38.5081C16.4197 42.8815 19.38 45.8298 21.5414 47.5711ZM23.9032 23.9032H12.8921C13.0089 19.7882 13.8905 16.314 15.1409 13.4299C17.4144 14.1185 20.2948 14.6233 23.9032 14.6977V23.9032ZM23.9032 25.7419V34.9474C20.2948 35.0219 17.4144 35.5266 15.1409 36.2152C13.8905 33.3303 13.0089 29.857 12.8921 25.7419H23.9032ZM23.9032 12.8471C20.6404 12.7744 18.0138 12.3387 15.9499 11.7365C18.5057 6.84092 22.0103 3.91185 23.9032 2.58706V12.8471ZM14.1719 11.1297C11.1481 9.9465 9.67713 8.50955 9.21102 7.97448C12.5428 4.88545 16.7874 2.7691 21.4918 2.08234C20.3646 2.98515 19.0279 4.20881 17.6838 5.80297C16.5199 7.18476 15.2705 8.95636 14.1719 11.1297ZM7.91013 9.28364C8.60424 10.0605 10.2609 11.5848 13.3904 12.8213C12.1088 15.8386 11.1729 19.5197 11.0552 23.9032H1.86169C2.08418 18.2768 4.33844 13.1679 7.91013 9.28364ZM1.86169 25.7419H11.0543C11.1702 30.0813 12.0895 33.755 13.4024 36.8192C10.2664 38.0567 8.60608 39.5837 7.91105 40.3615C4.33844 36.4772 2.08418 31.3684 1.86169 25.7419Z" fill="url(#paint0_linear)"/>
<path d="M52.4032 14.7097H32.1774C29.6428 14.7097 27.5806 16.7718 27.5806 19.3065V48.7258C27.5806 50.9451 29.1629 52.8022 31.2581 53.2297V57H36.7742V53.3226H47.8064V57H53.3226V53.2297C55.4178 52.8022 57 50.946 57 48.7258V19.3065C57 16.7718 54.9379 14.7097 52.4032 14.7097ZM47.8064 16.5484V35.8548C47.8064 38.897 45.3325 41.371 42.2903 41.371C39.2482 41.371 36.7742 38.897 36.7742 35.8548V16.5484H47.8064ZM34.9355 55.1613H33.0968V53.3226H34.9355V55.1613ZM49.6452 55.1613V53.3226H51.4839V55.1613H49.6452ZM55.1613 48.7258C55.1613 50.2464 53.9238 51.4839 52.4032 51.4839H51.4839V43.2097H49.6452V51.4839H34.9355V43.2097H33.0968V51.4839H32.1774C30.6568 51.4839 29.4194 50.2464 29.4194 48.7258V19.3065C29.4194 17.7858 30.6568 16.5484 32.1774 16.5484H34.9355V35.8548C34.9355 39.9101 38.235 43.2097 42.2903 43.2097C46.3456 43.2097 49.6452 39.9101 49.6452 35.8548V16.5484H52.4032C53.9238 16.5484 55.1613 17.7858 55.1613 19.3065V48.7258Z" fill="url(#paint1_linear)"/>
<path d="M34.9355 2.75806C34.9355 2.25058 35.3483 1.83871 35.8548 1.83871H36.7742V5.51613H47.8064V1.83871H48.7258C49.2324 1.83871 49.6452 2.25058 49.6452 2.75806V12.871H51.4839V2.75806C51.4839 1.23745 50.2464 0 48.7258 0H35.8548C34.3342 0 33.0968 1.23745 33.0968 2.75806V12.871H34.9355V2.75806ZM45.9677 3.67742H38.6129V1.83871H45.9677V3.67742Z" fill="url(#paint2_linear)"/>
</svg>
